<mxfile host="app.diagrams.net" agent="Mozilla/5.0 (Windows NT 10.0; Win64; x64) AppleWebKit/537.36 (KHTML, like Gecko) Chrome/139.0.0.0 Safari/537.36" version="28.1.0">
  <diagram name="Page-1" id="oeTWqsdfq4TrdgN6wt5i">
    <mxGraphModel grid="1" page="1" gridSize="10" guides="1" tooltips="1" connect="1" arrows="1" fold="1" pageScale="1" pageWidth="850" pageHeight="1100" math="0" shadow="0">
      <root>
        <mxCell id="0" />
        <mxCell id="1" parent="0" />
        <mxCell id="IOgKy1PTMvRarH1jWRsv-1" value="High Level Architecture" style="text;html=1;align=center;verticalAlign=middle;resizable=0;points=[];autosize=1;strokeColor=none;fillColor=none;fontStyle=1;fontSize=30;" vertex="1" parent="1">
          <mxGeometry x="760" y="-90" width="330" height="50" as="geometry" />
        </mxCell>
        <mxCell id="IOgKy1PTMvRarH1jWRsv-2" value="" style="rounded=0;whiteSpace=wrap;html=1;fillColor=none;strokeColor=#808080;dashed=1;dashPattern=1 2;strokeWidth=3;" vertex="1" parent="1">
          <mxGeometry x="860" y="120" width="170" height="560" as="geometry" />
        </mxCell>
        <mxCell id="IOgKy1PTMvRarH1jWRsv-3" value="Sources" style="rounded=0;whiteSpace=wrap;html=1;fillColor=default;strokeColor=none;fontSize=15;fontStyle=1" vertex="1" parent="1">
          <mxGeometry x="905" y="105" width="70" height="40" as="geometry" />
        </mxCell>
        <mxCell id="IOgKy1PTMvRarH1jWRsv-4" value="" style="rounded=0;whiteSpace=wrap;html=1;fillColor=none;strokeColor=#808080;dashed=1;dashPattern=1 2;strokeWidth=3;" vertex="1" parent="1">
          <mxGeometry x="1050" y="120" width="1140" height="560" as="geometry" />
        </mxCell>
        <mxCell id="IOgKy1PTMvRarH1jWRsv-5" value="" style="rounded=0;whiteSpace=wrap;html=1;fillColor=none;strokeColor=#808080;dashed=1;dashPattern=1 2;strokeWidth=3;" vertex="1" parent="1">
          <mxGeometry x="2273" y="120" width="260" height="560" as="geometry" />
        </mxCell>
        <mxCell id="IOgKy1PTMvRarH1jWRsv-6" value="Data Warehouse" style="rounded=0;whiteSpace=wrap;html=1;fontStyle=1;fontSize=20;strokeColor=none;" vertex="1" parent="1">
          <mxGeometry x="1470" y="85" width="220" height="60" as="geometry" />
        </mxCell>
        <mxCell id="IOgKy1PTMvRarH1jWRsv-7" value="Consume" style="rounded=0;whiteSpace=wrap;html=1;strokeColor=none;fontStyle=1;fontSize=16;" vertex="1" parent="1">
          <mxGeometry x="2360" y="95" width="80" height="60" as="geometry" />
        </mxCell>
        <mxCell id="IOgKy1PTMvRarH1jWRsv-8" value="Bronze Layer" style="rounded=0;whiteSpace=wrap;html=1;fontSize=18;fillColor=#ffcc99;strokeColor=#36393d;fontStyle=1;gradientColor=#CC6600;" vertex="1" parent="1">
          <mxGeometry x="1160" y="160" width="120" height="40" as="geometry" />
        </mxCell>
        <mxCell id="IOgKy1PTMvRarH1jWRsv-9" value="" style="rounded=0;whiteSpace=wrap;html=1;gradientColor=none;strokeColor=#FFB570;strokeWidth=3;fillColor=none;" vertex="1" parent="1">
          <mxGeometry x="1080" y="215" width="280" height="425" as="geometry" />
        </mxCell>
        <mxCell id="IOgKy1PTMvRarH1jWRsv-10" value="Silver Layer" style="rounded=0;whiteSpace=wrap;html=1;fontSize=18;fillColor=#f5f5f5;strokeColor=#666666;strokeWidth=2;fontStyle=1;gradientColor=#b3b3b3;" vertex="1" parent="1">
          <mxGeometry x="1510" y="160" width="120" height="40" as="geometry" />
        </mxCell>
        <mxCell id="IOgKy1PTMvRarH1jWRsv-11" style="edgeStyle=orthogonalEdgeStyle;rounded=0;orthogonalLoop=1;jettySize=auto;html=1;exitX=0.5;exitY=1;exitDx=0;exitDy=0;" edge="1" parent="1" source="IOgKy1PTMvRarH1jWRsv-10" target="IOgKy1PTMvRarH1jWRsv-10">
          <mxGeometry relative="1" as="geometry" />
        </mxCell>
        <mxCell id="IOgKy1PTMvRarH1jWRsv-12" value="Gold Layer" style="rounded=0;whiteSpace=wrap;html=1;fontSize=19;fillColor=#fff2cc;strokeColor=light-dark(#000000,#6D5100);strokeWidth=2;gradientColor=#FFB570;fontStyle=1" vertex="1" parent="1">
          <mxGeometry x="1880" y="160" width="120" height="40" as="geometry" />
        </mxCell>
        <mxCell id="IOgKy1PTMvRarH1jWRsv-13" value="" style="rounded=0;whiteSpace=wrap;html=1;gradientColor=none;strokeColor=#808080;strokeWidth=3;fillColor=none;" vertex="1" parent="1">
          <mxGeometry x="1440" y="215" width="280" height="425" as="geometry" />
        </mxCell>
        <mxCell id="IOgKy1PTMvRarH1jWRsv-14" value="" style="rounded=0;whiteSpace=wrap;html=1;gradientColor=#ffd966;strokeColor=#d6b656;strokeWidth=3;fillColor=none;" vertex="1" parent="1">
          <mxGeometry x="1800" y="210" width="280" height="430" as="geometry" />
        </mxCell>
        <mxCell id="IOgKy1PTMvRarH1jWRsv-61" value="CRM" style="image;aspect=fixed;html=1;points=[];align=center;fontSize=18;image=img/lib/azure2/general/Folder_Blank.svg;fontStyle=1" vertex="1" parent="1">
          <mxGeometry x="906" y="170" width="69" height="56.00000000000001" as="geometry" />
        </mxCell>
        <mxCell id="IOgKy1PTMvRarH1jWRsv-62" value="" style="image;aspect=fixed;html=1;points=[];align=center;fontSize=12;image=img/lib/azure2/general/Media_File.svg;" vertex="1" parent="1">
          <mxGeometry x="960" y="190" width="32.53" height="40" as="geometry" />
        </mxCell>
        <mxCell id="IOgKy1PTMvRarH1jWRsv-64" value="ERP" style="image;aspect=fixed;html=1;points=[];align=center;fontSize=18;image=img/lib/azure2/general/Folder_Blank.svg;fontStyle=1" vertex="1" parent="1">
          <mxGeometry x="915.5" y="302" width="69" height="56.00000000000001" as="geometry" />
        </mxCell>
        <mxCell id="IOgKy1PTMvRarH1jWRsv-63" value="" style="image;aspect=fixed;html=1;points=[];align=center;fontSize=12;image=img/lib/azure2/general/Media_File.svg;" vertex="1" parent="1">
          <mxGeometry x="975" y="330" width="32.53" height="40" as="geometry" />
        </mxCell>
        <mxCell id="IOgKy1PTMvRarH1jWRsv-70" value="" style="endArrow=none;html=1;rounded=0;" edge="1" parent="1">
          <mxGeometry width="50" height="50" relative="1" as="geometry">
            <mxPoint x="885" y="438.5" as="sourcePoint" />
            <mxPoint x="999" y="439" as="targetPoint" />
          </mxGeometry>
        </mxCell>
        <mxCell id="IOgKy1PTMvRarH1jWRsv-71" value="&lt;b&gt;Object Type: &lt;/b&gt;CSV Files&lt;div&gt;&lt;br&gt;&lt;/div&gt;&lt;div&gt;&lt;b&gt;Interface: &lt;/b&gt;Files in Folder&lt;/div&gt;" style="text;html=1;align=left;verticalAlign=middle;whiteSpace=wrap;rounded=0;" vertex="1" parent="1">
          <mxGeometry x="878.77" y="460" width="142.47" height="90" as="geometry" />
        </mxCell>
        <mxCell id="IOgKy1PTMvRarH1jWRsv-72" value="Raw Data" style="html=1;verticalLabelPosition=bottom;align=center;labelBackgroundColor=#ffffff;verticalAlign=top;strokeWidth=2;strokeColor=#d79b00;shadow=0;dashed=0;shape=mxgraph.ios7.icons.data;fillColor=default;gradientColor=#ffa500;fontSize=14;fontStyle=1" vertex="1" parent="1">
          <mxGeometry x="1180" y="229.25" width="80" height="85.5" as="geometry" />
        </mxCell>
        <mxCell id="IOgKy1PTMvRarH1jWRsv-73" value="Cleaned, Standardized Data" style="html=1;verticalLabelPosition=bottom;align=center;labelBackgroundColor=#ffffff;verticalAlign=top;strokeWidth=2;strokeColor=#666666;shadow=0;dashed=0;shape=mxgraph.ios7.icons.data;fillColor=default;gradientColor=#b3b3b3;fontStyle=1;fontSize=14;" vertex="1" parent="1">
          <mxGeometry x="1530" y="226" width="80" height="85.5" as="geometry" />
        </mxCell>
        <mxCell id="IOgKy1PTMvRarH1jWRsv-74" value="Business-Ready Data" style="html=1;verticalLabelPosition=bottom;align=center;labelBackgroundColor=#ffffff;verticalAlign=top;strokeWidth=2;strokeColor=#d6b656;shadow=0;dashed=0;shape=mxgraph.ios7.icons.data;fillColor=default;gradientColor=#ffd966;fontStyle=1;fontSize=14;" vertex="1" parent="1">
          <mxGeometry x="1900" y="226" width="80" height="85.5" as="geometry" />
        </mxCell>
        <mxCell id="IOgKy1PTMvRarH1jWRsv-76" value="" style="shape=singleArrow;whiteSpace=wrap;html=1;fillColor=#dae8fc;gradientColor=#7ea6e0;strokeColor=#6c8ebf;" vertex="1" parent="1">
          <mxGeometry x="1310" y="242.75" width="170" height="60" as="geometry" />
        </mxCell>
        <mxCell id="IOgKy1PTMvRarH1jWRsv-77" value="" style="shape=singleArrow;whiteSpace=wrap;html=1;fillColor=#dae8fc;gradientColor=#7ea6e0;strokeColor=#6c8ebf;" vertex="1" parent="1">
          <mxGeometry x="1010" y="242.75" width="145" height="60" as="geometry" />
        </mxCell>
        <mxCell id="IOgKy1PTMvRarH1jWRsv-78" value="" style="shape=singleArrow;whiteSpace=wrap;html=1;fillColor=#dae8fc;gradientColor=#7ea6e0;strokeColor=#6c8ebf;" vertex="1" parent="1">
          <mxGeometry x="1690" y="242" width="150" height="60" as="geometry" />
        </mxCell>
        <mxCell id="IOgKy1PTMvRarH1jWRsv-83" value="" style="endArrow=none;html=1;rounded=0;fillColor=#ffcd28;gradientColor=#ffa500;strokeColor=#d79b00;" edge="1" parent="1">
          <mxGeometry width="50" height="50" relative="1" as="geometry">
            <mxPoint x="1130" y="358" as="sourcePoint" />
            <mxPoint x="1360" y="358" as="targetPoint" />
            <Array as="points">
              <mxPoint x="1331.2" y="358" />
            </Array>
          </mxGeometry>
        </mxCell>
        <mxCell id="IOgKy1PTMvRarH1jWRsv-84" value="" style="endArrow=none;html=1;rounded=0;fillColor=#f5f5f5;gradientColor=#b3b3b3;strokeColor=#666666;" edge="1" parent="1">
          <mxGeometry width="50" height="50" relative="1" as="geometry">
            <mxPoint x="1465" y="358.46" as="sourcePoint" />
            <mxPoint x="1695" y="358.46" as="targetPoint" />
            <Array as="points">
              <mxPoint x="1666.2" y="358.46" />
            </Array>
          </mxGeometry>
        </mxCell>
        <mxCell id="IOgKy1PTMvRarH1jWRsv-85" value="" style="endArrow=none;html=1;rounded=0;fillColor=#fff2cc;gradientColor=#ffd966;strokeColor=#d6b656;" edge="1" parent="1">
          <mxGeometry width="50" height="50" relative="1" as="geometry">
            <mxPoint x="1815" y="360" as="sourcePoint" />
            <mxPoint x="2045" y="360" as="targetPoint" />
            <Array as="points">
              <mxPoint x="2016.1999999999998" y="360" />
            </Array>
          </mxGeometry>
        </mxCell>
        <mxCell id="IOgKy1PTMvRarH1jWRsv-87" value="&lt;b&gt;Object Type: &lt;/b&gt;Tables&lt;div&gt;&lt;br&gt;&lt;/div&gt;&lt;div&gt;&lt;b&gt;Load:&amp;nbsp;&lt;/b&gt;&lt;/div&gt;&lt;div&gt;&lt;ul&gt;&lt;li&gt;Batch Processing&lt;/li&gt;&lt;li&gt;Full Load&lt;/li&gt;&lt;li&gt;Truncate &amp;amp; Insert&lt;/li&gt;&lt;/ul&gt;&lt;div&gt;No &lt;b&gt;Transformations&lt;/b&gt;&lt;/div&gt;&lt;/div&gt;&lt;div&gt;&lt;div&gt;&lt;br&gt;&lt;/div&gt;&lt;div&gt;&lt;b&gt;Data Model: &lt;/b&gt;None (as-is)&lt;/div&gt;&lt;/div&gt;" style="text;html=1;align=left;verticalAlign=middle;whiteSpace=wrap;rounded=0;" vertex="1" parent="1">
          <mxGeometry x="1114" y="360" width="232" height="190" as="geometry" />
        </mxCell>
        <mxCell id="IOgKy1PTMvRarH1jWRsv-91" value="&lt;b&gt;Object Type: &lt;/b&gt;Tables&lt;div&gt;&lt;br&gt;&lt;/div&gt;&lt;div&gt;&lt;b&gt;Load:&amp;nbsp;&lt;/b&gt;&lt;/div&gt;&lt;div&gt;&lt;ul&gt;&lt;li&gt;Batch Processing&lt;/li&gt;&lt;li&gt;Full Load&lt;/li&gt;&lt;li&gt;Truncate &amp;amp; Insert&lt;/li&gt;&lt;/ul&gt;&lt;div&gt;&lt;b&gt;Transformations:&lt;/b&gt;&lt;/div&gt;&lt;/div&gt;&lt;div&gt;&lt;ul&gt;&lt;li&gt;Data Cleansing&lt;/li&gt;&lt;li&gt;Data Standardization&lt;/li&gt;&lt;li&gt;Data Normalization&lt;/li&gt;&lt;li&gt;Derived Columns&lt;/li&gt;&lt;li&gt;Data Enrichment&lt;/li&gt;&lt;/ul&gt;&lt;/div&gt;&lt;div&gt;&lt;div&gt;&lt;br&gt;&lt;/div&gt;&lt;div&gt;&lt;b&gt;Data Model: &lt;/b&gt;None (as-is)&lt;/div&gt;&lt;/div&gt;" style="text;html=1;align=left;verticalAlign=middle;whiteSpace=wrap;rounded=0;" vertex="1" parent="1">
          <mxGeometry x="1480" y="360" width="240" height="270" as="geometry" />
        </mxCell>
        <mxCell id="IOgKy1PTMvRarH1jWRsv-92" value="&lt;b&gt;Object Type: &lt;/b&gt;Views&lt;div&gt;&lt;br&gt;&lt;/div&gt;&lt;div&gt;NO&lt;b&gt; Load&amp;nbsp;&lt;/b&gt;&lt;/div&gt;&lt;div&gt;&lt;b&gt;&lt;br&gt;&lt;/b&gt;&lt;/div&gt;&lt;div&gt;&lt;div&gt;&lt;b&gt;Transformations:&lt;/b&gt;&lt;/div&gt;&lt;/div&gt;&lt;div&gt;&lt;ul&gt;&lt;li&gt;Data Integrations&lt;/li&gt;&lt;li&gt;Aggregations&lt;/li&gt;&lt;li&gt;Business Logic&lt;/li&gt;&lt;/ul&gt;&lt;/div&gt;&lt;div&gt;&lt;div&gt;&lt;b&gt;Data Model:&lt;/b&gt;&lt;/div&gt;&lt;/div&gt;&lt;div&gt;&lt;ul&gt;&lt;li&gt;Star Schema&lt;/li&gt;&lt;li&gt;Flat Table&lt;/li&gt;&lt;li&gt;Aggregated Table&lt;/li&gt;&lt;/ul&gt;&lt;/div&gt;&lt;div&gt;&lt;b&gt;&lt;br&gt;&lt;/b&gt;&lt;/div&gt;" style="text;html=1;align=left;verticalAlign=middle;whiteSpace=wrap;rounded=0;" vertex="1" parent="1">
          <mxGeometry x="1840" y="358" width="240" height="282" as="geometry" />
        </mxCell>
        <mxCell id="IOgKy1PTMvRarH1jWRsv-96" value="" style="image;aspect=fixed;html=1;points=[];align=center;fontSize=12;image=img/lib/azure2/power_platform/PowerBI.svg;" vertex="1" parent="1">
          <mxGeometry x="2330" y="210" width="51" height="68" as="geometry" />
        </mxCell>
        <mxCell id="IOgKy1PTMvRarH1jWRsv-97" value="" style="shape=image;html=1;verticalAlign=top;verticalLabelPosition=bottom;labelBackgroundColor=#ffffff;imageAspect=0;aspect=fixed;image=https://icons.diagrams.net/icon-cache1/Ionicons_Fill_Vol_2-2187/logo-tableau-566.svg" vertex="1" parent="1">
          <mxGeometry x="2400" y="206" width="72" height="72" as="geometry" />
        </mxCell>
        <mxCell id="IOgKy1PTMvRarH1jWRsv-98" value="" style="sketch=0;html=1;aspect=fixed;strokeColor=none;shadow=0;fillColor=#3B8DF1;verticalAlign=top;labelPosition=center;verticalLabelPosition=bottom;shape=mxgraph.gcp2.big_query" vertex="1" parent="1">
          <mxGeometry x="2359" y="340" width="81" height="81.82" as="geometry" />
        </mxCell>
        <mxCell id="IOgKy1PTMvRarH1jWRsv-100" value="" style="sketch=0;outlineConnect=0;fontColor=#232F3E;gradientColor=none;fillColor=#7AA116;strokeColor=none;dashed=0;verticalLabelPosition=bottom;verticalAlign=top;align=center;html=1;fontSize=12;fontStyle=0;aspect=fixed;pointerEvents=1;shape=mxgraph.aws4.iot_greengrass_component_machine_learning;" vertex="1" parent="1">
          <mxGeometry x="2360" y="480" width="78" height="78" as="geometry" />
        </mxCell>
        <mxCell id="IOgKy1PTMvRarH1jWRsv-101" value="BI &amp;amp; Reporting" style="rounded=0;whiteSpace=wrap;html=1;fillColor=none;strokeColor=none;fontStyle=1;fontSize=15;" vertex="1" parent="1">
          <mxGeometry x="2320" y="300" width="180" height="30" as="geometry" />
        </mxCell>
        <mxCell id="IOgKy1PTMvRarH1jWRsv-102" value="Ad-Hoc SQL Queries" style="rounded=0;whiteSpace=wrap;html=1;fillColor=none;strokeColor=none;fontStyle=1;fontSize=15;" vertex="1" parent="1">
          <mxGeometry x="2313" y="430" width="180" height="30" as="geometry" />
        </mxCell>
        <mxCell id="IOgKy1PTMvRarH1jWRsv-103" value="Machine Learning" style="rounded=0;whiteSpace=wrap;html=1;fillColor=none;strokeColor=none;fontStyle=1;fontSize=15;" vertex="1" parent="1">
          <mxGeometry x="2309" y="570" width="180" height="30" as="geometry" />
        </mxCell>
        <mxCell id="IOgKy1PTMvRarH1jWRsv-104" value="" style="shape=singleArrow;whiteSpace=wrap;html=1;fillColor=#dae8fc;gradientColor=#7ea6e0;strokeColor=#6c8ebf;" vertex="1" parent="1">
          <mxGeometry x="2130" y="242.75" width="150" height="60" as="geometry" />
        </mxCell>
        <mxCell id="IOgKy1PTMvRarH1jWRsv-109" value="" style="shape=image;imageAspect=0;aspect=fixed;verticalLabelPosition=bottom;verticalAlign=top;image=data:image/png,iVBORw0KGgoAAAANSUhEUgAAAYAAAAGACAYAAACkx7W/AAAAAXNSR0IArs4c6QAAIABJREFUeF7sXQl8U1X2/s59SVtAliYpa9M2ScsuuCO44r7ggmhbcNdxGfdRZ0adcXQcx3EcHf/jODrq6Kgj0kRw3zcUURzFcRehbbqkIEKToggUmrzz52ZrEtI2SVvocu/vx0/JO/fcc777eOe9e+/5DkE1hYBCQCGgEOiXCFC/9Fo5rRBQCCgEFAJQAUDdBAoBhYBCoJ8ioAJAP5145bZCQCGgEFABQN0DCgGFgEKgnyKgAkA/nXjltkJAIaAQUAFA3QMKAYWAQqCfIqACQD+deOW2QkAhoBBQAUDdAwoBhYBCoJ8ioAJAP5145bZCQCGgEFABQN0DCgGFgEKgnyKgAkA/nXjltkJAIaAQUAFA3QMKAYWAQqCfIqACQD+deOW2QkAhoBBQAUDdAwoBhYBCoJ8ioAJAP5145bZCQCGgEFABQN0DCgGFgEKgnyKgAkA/nXjltkJAIaAQUAFA3QMKAYWAQqCfIqACQD+deOW2QkAhoBBQAUDdAwoBhYBCoJ8ioAJAP5145bZCQCGgEFABQN0DCgGFgEKgnyKgAkA/nXjltkJAIaAQUAFA3QMKAYWAQqCfIqACQD+deOW2QkAhoBBQAUDdAwoBhYBCoJ8ioAJAP5145bZCQCGgEFABQN0DCgGFgEKgnyKgAkA/nXjltkJAIaAQUAFA3QMKAYWAQqCfIqACQD+deOW2QkAhoBBQAUDdAwoBhYBCoJ8ioAJAP5145bZCQCGgEFABQN0DCgGFgEKgnyKgAkA/nXjltkJAIaAQUAFA3QMKgW5EoLK2dq+SoqL/deMQSrVCIGMEVADIGDrVUSGQHAG3u/4gnfhUAl3KzJpGus1ms9UqvBQCPQ0BFQB62owoe3odAl98UZc7aBAfpgOHE9E8AEPDTrwEsKbr7BxbbHu01zmmDO7zCKgA0OenWDnYXQisctcdqRGdAsYcBueFxuH1RPQwdOP9Dsfo+ip33QMEDHTYC8/sLjuUXoVApgioAJApcqpfv0Rg1ao6OwTPEUKcAvD+rSDwO8R4yOEoejIWmMrqmpuJ6Of+bYOKx4/P29gvQVNO91gEVADosVOjDOtJCFRX156iA3NIvvEDOSHbaD2z/pSA9k+Hw/plMnuraurLwbyAgdNK7IULe5JPyhaFgAoA6h5QCLSBwEq3e6oGMQehZZ5JrWL0DjNcJY6C+zsCr7K2dk/SSZ4CeqjYXnhhR/LqukJgZyKgAsDORFuN1eMRWL58uXGYOW8eM+YQcELMEs96gnhKvs07HIVLU3Vk+Zo1A4c1t2wioM5uKygmIn+qfZWcQqC7EVABoLsRVvp7BQLffFM7yphNZwF8FhFNjHnwv0MsngJa5jscjh8ycaayuq6eCFadedZYR9FLmehQfRQC3YGACgDdgarS2WsQqKqqnwwDn0U6zmJgRMRwBv8LxPNLbLZ3OutMtbv+dQYfSaD7HPaCSzurT/VXCHQVAioAdBWSSk+vQqCysuZQCJJv+2cB0Fof/HiKQfeOtRcs6SqHqtz1fwf4MoAat24J7D5pkm1tV+lWehQCnUFABYDOoKf69joEqms9c3RdPzt+fV8e3+fFguhuu73wha52yl3nOUMP6P8J6iVcWWwrvKerx1D6FAKZIKACQCaoqT69CgGPxzNg61b9LBDknxlxxjO+ZsKfS+yFoQd0N7SqqqrhEMbvg6oZ7xc7Cg/shmGUSoVA2gioAJA2ZKpDb0Ggau3a4djcfAGAswAam/Dgb2TQbSWOgrt3hj9V1XUfgbBvMAaQfkyJzfbazhhXjaEQaA8BFQDU/dHnEGBmUeWuv0IIXMEMW6KDRLgd+uDbHQ5TRqd6MgGssrrudiL8OhQA+JESW9H5mehRfRQCXYmACgBdiabStcsR+OzLb88wGo1XZBm1fYnib28i+jcHAkuItK9/+qnpm6lTp27aWQZXVdUeBkFvhcajnwQMk+320XU7a3w1jkIgGQIqAKj7ok8g8O77y4/KHpBzVZZBOzbLaID8I4QAAy8SwRafyRt2mdEAgVXQUcmgVSCu1GBYZbONriQivauBqXLX1QOwhvTy74rtRX/o6jGUPoVAOgioAJAOWkq2xyHw8lvvO7KNhmuzsowXZ2UZkWUwQP7XGAoAa8CsEegHAi7XgQNBOAjMBwMQ7TtDVSBUEniVzjIw0CoivbIzvP7umvpHdeazw+PWbtaw15TCwqYeB6oyqN8goAJAv5nqvufos6+9e22WwXBtdpZxhHzgZxtDD/7gF0CW8U0tS7tE3+Y/nkgEN3o10gfYbLbmmpqaYYEADiVNO0RnPpSAPdJAZxsYlRC0CjpXkqDPoItPHI78VR3pqKr1zIauP90qx9cW24vu6qifuq4Q6C4EVADoLmSV3m5F4KmX3no5y2CMLveEH/qhh78x65EszX5JSQltlUZUuevvBPga+f/bBI+eWFT0Xaxx1dXVQ5m1GRBiBhHPYMYBALLTdGAjiD4B4xMGf24g7cva2sqvZs6cGcf9U+Wu3wjwblI3EX1tL7LuRUTb0hxLiSsEugQBFQC6BEalZGci8MSiVyuzswzFwaWe8JJPZN3faNB+v/fUSTfH2tPQ0GDesi3wKAGz5O+64Ilji4pWtGdzVVXd3hCYwcABxJgBiqzdp+XpRgb/jyC+1PXAV8T0BQmSuQgXR7TIWgEOW8E/09KqhBUCXYSACgBdBKRSs3MQ+LfzRQ6u9UeWeoL/jf798ml7T7k3mSWramr2ECyeBVAYvK7zAcXFRR+kavXKNWsshpaW8RzABAKPZ6LxAI0Hsz1VHW3IfVxsL9yvkzpUd4VARgioAJARbKrTrkDggSeeeTnLGLPsE97slWv/2VnG0w+ctmdcNa5EG6ura+cwUbQoCzEf73AUvdwZXyorK7M1TRuvk2E864EJEFoBgQuhoxBEhQAbUtB/drG98PEU5JSIQqBLEVABoEvhVMq6C4FHT5m31H/srAO0oUNi3vijb/5/O/yg/a5KZezK6rqbiXBTdAlGiNMdRdZ2A0cqetuSWenxjNECgUIKcCEgZFCwAlzMBAcYjlA/erfYXnBoZ8ZRfRUCmSCgAkAmqKk+Ox2Bx46fs0Jr3jy+5cJLW5d/QnsA6wYZDPsfcsi0mlSNqnLXPRaihwg1Bl9WYi/6R6r9M5WrrKzdizS6CMAOlcFUychMUVX9OoOACgCdQU/13WkIOPPtc0BYqBeXQC8/HVljxgQDgdFo+Ptxhx1wRTqGrF+/fvAPGzfLpZ8YUjb6bbG94I/p6ElVduVKzxjNqF8JQP7JAsFLTJ8y+IioDuZXih1Fx6WqU8kpBLoCARUAugJFpWOnIOC02j8DMDU42JSpyJq2P7JnHDT7uCNmyM3dtFqw3i9pL4ExprUj31VsL7o2LUXtCC9evNhgLbRdCYgrAY5kAH8BjS4hIdaxnxeDOTo+CTHHUWSNyRPoKkuUHoVAcgRUAFB3Rq9BoMLqmExgWaglN2K0GDNmW/aESQuzD5pxz9HnnfXfdJypqqqdDUFxD1wCPeywF/wsHT3JZCvddWcI0JUM3idynYCFRgNdWVBQsEb+5q6tv0HXOearQ+0FdBZ31T89BFQASA8vJb2LEZifby8xEL8L0KhEU3ImTtqUNWZkdc6oMUtGnnfm3yc4HB1m51ZW115NRPHZuMxPFzuK5mTi6ip33ZEitNRzfHx/+mOxveC3sb8FM5KZPgWoKOb3C4vthQ9lMrbqoxBIFwEVANJFTMnvcgQqxtjHkoBcww+fotnRJG3gQAydMf2nrFGjvtIGDVymDTG9Mf3yC19JZny1u/ZeBsXX6iW8XWwrPDxVZ91uzxQmvpKZz0voI7l+rmrrmGdldc1VEaqKcL+vNm3csP/OZCpN1Ucl1/cQUAGg781pv/DoSZtthOan92ODAAlayzqPbAsAMWAAsseM3pQzarQ7a9SIZdnDR780/ddXPS/lq6prXwJR3CZsKrz9brd7BJN2JXPwrX9g7NgEvCFI3GizWdtcmmJmY3VNvfxSiX4FEOF6h63w9n4xkcrJXYqACgC7FH41eGcQcBUW2qBrSxjIl3qIaBnreBaCDwEjpRM1MijkjBq5Sdtt8NpBkyeZBxQ7hg0oLER2QQFEVhaY8fsSR2EctUTE5uqauuDJnh2LzpAH0O8othclzUpO9LnKXSerlj0Y+Z0I30H37+9wOCR9tGoKgW5DQAWAboNWKd4ZCCywWkcLNr4NwrjQeLyBiE6AAV+ihY5h1meB6EgAI9K1J6eoEAMdxSCD8Q3/pk0LfvzgnXdK6+pqqqpqj2XCTUQ0LVEnM/9jGwJ3TErz4V3lrpN5DDF7AXRnsb3gl+narOQVAukgoAJAOmgp2R6JgKuoaCQCQn4JlEQMZMYZ5Q3u+ZG/B/cNNJrOzAcRYW9wWhTQcX5njR6FnNFjMLCkGANKioNBIqeocCmD/lBiL3g9E5CqqmrOgRD/jum7jQXvX1JU9Gkm+lQfhUAqCKgAkApKSqbHI/D0CMfwbVn8BgFTWo2lG8s81bcmM/6J4uIhWZv1YazxXwAq7ayDlJONAWPyNxktFo8YvNtXWUOHvd3saVhyzKIFX6eqO/ErQJawdNgKEjeVU1Wn5BQCHSKgAkCHECmB3oKAKz/fBJH1PjPGxwSBx8s81ZEqXDu48kxR0bBtAdEEwvdCp3N1wfuF6Z+nM2NwV/huyM1t1gbvtl7LyakG8MmWhoY3A5t//GKuxxPMB4i0qqr6cyA49isAxDjS4Sh8syvsUDoUAokIqACg7ok+hYArf+wYhl/uCYyNOMbg18s9NUe35ajTapcngU7QCUfMrXeHC7cDrtG2cWzAVOi0Nwh7Adg9k72EtsYVWVl+LTd3rXHI4DXa4CHu7BGWb/PKyi8YaLNFs4OZ9RdKHLYT+9QkKWd6DAIqAPSYqVCGdBUC8kuAKetVAPtGdBLouVJP9cnJxnAWOC4A84Py2Gapx31Ue3a4RtsLWMMRIBxGjP1i9x26yn55Mmmg3Y6BxaE9Bn3btj8Ie8GD+8+Z09BVYyg9CgGJgAoA6j7okwi47Pah7Mc7sZu9DDxZ7nGfnuhw8CQRjKuD/yBITCqtr/omHVAqCov3Agcmk04TQSy5iqYANDodHanIZo8auVnsNmTd5spVb4GwWuhYqTN/Xb665vNU+isZhYBaAlL3QL9B4MnRYy0Gzf8Wx20M459lHvfPE0FwWe3yFNFBIHqorL56B7rmdEGTewt+Xeyt67Q3Cd6HGZK6IoZ9NF2N7ctvL3e5HMDnOtPnYPq4fHXVh107gtLWFxFQXwB9cVaVT1EE5IN4a0C8SkDrmX3GHWUN7l/HwuS02i4F6F4GmrM1fdTs2toNXQmjs8BxAJhlIRqZk9AMBPmMjgbjJxA+Y7Cduv6rYS2Y60G0nInfEdC+TvfrpisxULp6HgIqAPS8OVEWdTECz1nGDd46oOVtBqLMnAxcWu5x3xcZKry2Xxf++8/LPO4uKdQus5WZtT+AEV56og9J+OdB03zcgmCQ8ZPfdHp9fVPwaOq2wDRmMQ3gvUCYCI4kuHUdKAR8weBPQeJ/FKCPNxn9n55bW9vcdSMoTb0FARUAestMKTs7hYDcGNYp60OKSRbTWcyc21D1TkSx02r/EsBkBv5b7nHv36kBATitjjsBviZGzz/KPO7LYsZ7A8ARAF9W5qlpsyJZxRjbVAgxAcQToPMEEI2Lz3forKWyKhq+IBkUgI+JaUlpg1tioVofR0AFgD4+wcq9VgSCb+O6JonZ8oK/EpqIAntLegf5V2eB489g/pX8fxbaxPK6yhWZ4OcscJy9/ZF6MziG2oHonLL6almKMtqcVvsvAPxVPnTLPO790h2rorBkAtg/WbCYuj1oHRv8auiiRoR1AJYw8zsqIHQRqD1QjQoAPXBSlEndh0BFYeEE0rXXAAQrdG2vxfv1tm2bpp31/febXPlFhzCJ0BcB489lDe7r0rXEmW+/HYTo/gKDawWJU0vrqz9J1PVkvm2KRhQ8wRMI6BPmran9Nt3xYuUlQ6rw8/4gMQE6DiDCYYkMpZnr5w0Eelsnfk7oLS+WNjT4MtelevYUBFQA6CkzoezYaQg8PmLEoOys3T4GeELoQ6A1R2D7W/kP29/KhwDwlHncBakaJY+Sash6mMHHRPpsX6Z5GkacV+p2S51Jm9Nq/wnAIGLcXtrgvj7V8VKVW2SzFfr92nhAPxpEh4CDPg9ItX+bcsTLwHiRdH65dHWtLNWpWi9EQAWAXjhpyuTOIxAkhyMsB4XoHhg4r9zj/rfTan8SwNzQCHxImadGlqBstzkLbKVgknTOQyOCzHxFeUPN3zvsm2+XWcszJUVEmccd3aTuqF9nrrsKiifqHJhNoKQ8SWnrZtQD/ByxeLZ0dfXbafdXHXYZAioA7DLo1cC7GgFXvmM2EwdrAhOwwW/g8VpAOwSsO8O2Jc0ZiLXbaXX8EeAbor8RvmfGCeUe98ep+OcssN8ODi0ZUXPO4NL138gvgm5tLqv9agZ+FxuwQLQMzNM7O7DEkUHPMeiZLZr/NXW6qLOIdm9/FQC6F1+lvYcjUJFvu4OIgrz7xHiquWXTudlZgyIP4aYyj9uUzAV5tLR5gP8JgFt5epg/08l/fCLJW3sQLMi3nS+I/hUan44tbaiWFBZd3l4YPXrgJkPOhdBxNVFo/yPcHmHgn0wYIhhB0jld021CF8VgHCZptRPk07FtCxivEpFzQGDLCyesWbM5nc5KtvsRUAGg+zFWI/RwBFxW+8eRHIHtRyFPAtGFzKGi7olHReVvrnxHMQt+MfaMPoHeQXP2Cem+wS/ILz5UkL44BBHdVuap/k1XwhUqnSl+CeILwMG9jdBIwHtC0y88tTa08VxRYL+KGHfLJLUyjztuj2BBUVER6bSvYJrLwOxM7SPCQl3Hgi0G/WX1ZZApil3bTwWArsVTaeuFCFRYix3gwOdENIjBkqL5vtb1cb6zzFMTrcy1wGo7SIBeDG8UR56mL5fVu4MBI922aExxvl/onuBDmfFWaYP7iHR1JJMPBSn8Gsw/i7vOWAmi68o81c/G/u7Mtz0IIlma8ssyjzumpkK89mBSXY7/CF3o04nptPgqZilbLr8MFpHAA6X17qUp91KCXY6ACgBdDqlS2BsRcFkd5zAiXPz0GsBh+mj6psxTPUn65Mp3HBPeM4i+ITPRf8rrq8/qjM9Oq51lf41o9an11cH6xpk2+bYuAkKu75+boGMtMf+2tKHm4WS6nVa7PMkzVZ5cKvW456Q6/oJCxwyh4xR55JSZ90y1X6scrWDC/cLAj7d3Wip9vapHKgioAJAKSkqmXyDgzLctA9EOGcAUQCGI5LJPtFZACBB+rMxTc05nwXFa7T4B5AoCDAOMQ05auXJjujpfyB87ZpsI3KgzX6QndmbM9wv/5ZJuIpneMH22N+TSjjxJqdoS1iMDpzxFdUKq/Vrl+LEAaX+ZV1+VchW19MdQPWIRUAFA3Q8KgTACrnzbfkwkM4XjGgGvMxBfJ4Dw57L69BPFkoH9VIGjUhCKNQJI8L4nud2S2TOlJsnuDKT9nhlXyAd/QAcCYDAH8xvcYFza0cZyRYHtNGJyyQGJ+WdtfSWkZFAEy7yJu/GArXPALDmQJAFeGo2eZ/CtqZ6kSkOxEt3x3laYKAQUAhEEKqz2BQSUt4sI44myBveZXYXawgL7xxrRPjIACGDurNrqilR0v2YrPl8n3KYzhuvMCAUA+V/aGGD992WemrtS0eO02pyRusi6COw1t66uSwvRS1puIVrOJSJJfSFpsVNrhMWk63eUNtR2y8mo1Izo21LqC6Bvz6/yLk0EgpunxJVtdZO8+6Ued7TSWJrqk4o/XehYaiAcIIigCbr42OrKB9rT+3Zx8SSd6X4mHBR88G8/1B/8I5lFdV7AfuPlp6z+NrSk00FzyTf1nOb1AHKIaGNpfXX0pFBHfTO57sq3zwPh4mDthZQbfbjdy5vKPTWvp9xFCaaEgAoAKcGkhPoTAs58+0sgHNeWzwxUyvKRRPzsJsHvdfZI43OFjqWCcIAmAwD4l0fXVN+ZbOwPi4uHNEPczMS/kEs88oHfGgC4KQC68ISaqoXpzFVsHgIYL5U1uGel0z9T2RAxnziXgfPTqIOwVCfcHFu3OdPxVb8QAioAqDtBIZCAgKvQfjzrkEc9U21LAH6NQW9ksm79vM2xVAMdoAmCILrlqKpVsnBMXFs6btz5zPxHBkbIC/LBL48Ohd/8X9zmb7ng+NratakaHJFz5dvfZ8KM8OPgl2We5MEnXb3pyFfk208hgUtl4lkq/WQOgw5ckwnWqejvTzIqAPSn2Va+poyA02qvAuBIuUOr4A/M9LwgfWGpp+b5VPq/ZJNfAHSA3APQCHcfXlV1daTfeyUl00jgH2DamwjBzV354OdgACBfC+tXHlFV9UQq4yTKxLKRBoMKsO9cT+ob0JmM2V6fJwuKJwk9cAURpVSSc3swvD9b02/o6uptXe1XT9anAkBPnh1l2y5DwJVv/x0Tft8ZA+SaOrP+NCCepebsN9vKEn7FUfw/DbRncBOY8M+ZlZU/X1xUNCw7O1sWlDmf5JM/3OSDX36468A/hcHwmxlff50xLbPTan8kJl/AV+Zxmzvjb1f1dRXYZe3kJ5hR2JFOWbdA13F1eYN7fkey6vqOCKgAoO4KhUASBCRjJrPepefRmfEWgV4n6O+UNtR8FBn2VXtxrUYolHsAgvCgIHJpwKOCkC//gcY8/6GDvwLx2dNXVP2vMxPnGlmcx0ZdFn0JNmZ+sLyh5qLO6My076KCErufA4duLz5zKECHZsQ9xFgcMOiXzAtTW2RqS3/rpwJAf5tx5W/KCLgK7CuYMT76kCS6ghgeIpwC8MGpvKEmG0w+6A0CPxqI3jEQPSsIj4SWf4IBYJNGGCSTwoQ8yS9zA8JKiPmmfb5ddUvKDrQjuMMXDuHIsnp3kAyuu1vkgU9E4Yd+HDld7PAeML4AhXiZUmv8hzJPjcyEVi0FBFQASAEkJdI/EXBabbcAdGPE+0S2TldR0UgO0BwG/ZyAIF1ER03+gzMIkmv9MMhTPzH/DW4CBykhgktBckM4+PAnwgodgdP3/aaqy87nV+Tb1xPBErKXvWWemvD/d+RB+tdlhjDYeLxO4kiA23vD38LMCyHwpoC2vLS+6puKfPv7FNyk5s0GMuzu1/1XguiK9qxg4D2jCJTNqav7Ln1r+1cPFQD613wrb9NAwFXoOIz1VvoHIrqotL5aFn7ZoUlSt4DQS0O1eWWh9+Qt/PYffNs3hN/6DQLQIHMAQg//4JcAogFg4bDNzWfaamub0zC9XVGn1XYpQPdGhQgPlNW7L+4q/VLPwsLiPQM6H0/gWQxMa0f3VwA+AtGSrVt/WihLc0ZkKwqLf0a6/lDw70R/L6uvDj74g3sEjH9yu0GXGkmgrLROFahpb15VAOjKu17p6lMIhEpHRmsDyDflW8s8NdEvgracdeXnD2AyHAyi45npbAqVmAw2+YA3BhO+Yr4AYr4I5Jt/JABIWRBu3OPrlV1TuStsg9Nql+yjUdI50unwzlbyCpfZPJKZZ5HkASIMb/NmCDKSsotIq5Bv+cnkXPljxzD5V0VqGhMb8ksbVq2Ola2w2q8mxs2Rqm5Jx2PcXNbg7tRmfp+6qROcUQGgL8+u8q3TCDgL7J+CsUdIET1W5qlOm/zNVWA7VWearYFO1AR2k0s/8q0/ugQkWr8GYvYCgstA8h+oAH5kxtNCo7smfrFCvjFn3JxWu3zTvz9GQU2Zx23PROH8goJcIxtPYgT5ftqnsSasJKaFAUGL5tZ1vJTlLLC/BA4l4xHo3lJP9eXJbFxUWDgqwNo9zDi1LR+I8Jbfbyift2ZVYyZ+9uU+KgD05dlVvnUaAafVLh+WweWRruDrf7rQfl4W0Y2aoKJgIJB7AEm+ACL7ANFTQOHz/zrwJhPdPeXLFS+n61zoyyTLDWBkpC8zri9vcN+eqi750DewQRaFkXxJHZC80Ycgfp6ZXij3VKccuGKXqBhoFppuK+0gyc05xjETgh8FUJDMF2bUgcTh5Z6q6lR97Q9yKgD0h1lWPmaMQEylLPk2XlnqcY/NWBmAZwvt84xC/MsgaEDw4R/+GojdE5DLQ6HN4OgmcDD5S7YI70+A+esA8Me9vv52Qar2uArs1zHjT7Hy1CKGl66tklxAbTaX3T5U99NJgvkM7vChjzcIeCaAlufSKY0ZGXxhvm1KgOjzyN+J+C+l9TW/SsXHJ4qLhxi38kMAlyaTJ9B6HTgsnWCUyri9WUYFgN48e8r2bkegYox9Fgm8EByIsbGswZ0xWdqiguIzDYIfl3sAyZaAIktC8jSQFtkEjjkGGqJ+YAQYCET+q6POz7h9+sqV/2wPjPCbe01sIXgGO8s9NUmZT4MkcdlbTmbQPKLgxnZ7rQHgf+sB8dDcNdXB6maZtGDdYpHzGRFKIngTthWVNjSklezmLHCcDZ3/3sbewA+ki2NLV1cty8TGvtZHBYC+NqPKny5FoMLqmEzgLyNKyzzujP7NPGW13WAQ4o+RB7982BsjSz/hPQAD0X814FlNo19phNzQFwDLNfAQ/UOSAODXGX4G/Mzf+XX+06GVlX9PBkBFge0OYoqWtpQybdQ7ns0kl3eSv0XH6SYsgo5HyhrcaS9HJbPRZbXfx8DPo9eIfl1WX31HJhMqyeagawvaOIG0hcEnK3ZRRQaXyb2l+vQjBMLr5psjLrdki6FnVFX9mA4Est6uJuiC2M1fA9HHBuI3DELcEAkKRqIbpn7zbXCJZtXu48/RBF1DwGRJBRHi/pFv/qE//vAXQCgAMPx66De/zqtaWL/kWLc7Wr0sKcU1Y1VZg3ucHKvCajsKoLmE4Ebqbu36xlgF0MMBo/7YvJqa79PBoT1ZZ779OBBeipFpKPO4rZ3V77TabwNwfTL/Zm19AAAgAElEQVQ9BCov9VQ7OztGb+6f0dtMb3ZY2a4QSBcBWbIRQK7sl+w4Ylv6Qlz7W54C6Bi50RvZ9DUKWnBUdeW8JWPHPmggXBC5phlo+tQvVnwYq692j4mnC6LbmLkgWPAl+uAPP/BjH/4yMES+CHR26lvFZSesWdXoLLC/AY4/pbP9aOpfQ+PQ2QzuiANoC4AFRPh3dxRxrxhjH0saPga3HpclxumlDe4n052rZPLOQvsc0vE4AwN3vE6zyzzVz3bFOL1RhwoAvXHWlM07FYFYZlAWgYnldXUrOjJAHk/069orstC6lJUbvnLJxwhcdGxtKJlsydix3xkII+XvBsLGPb9Z2eb+Qt0eE0/TgTsDOhdEvgCCSz/hL4AWWQqSGS2tAQB+YKM/wC8EgHkd2dvG9W+Y+W6xdUBFW0R2GeqNdgtu3DbrH4MQ3VyXmbzlHvfBndUd2z/MfPocgKLY3xnczEIcPreu+oOuHK+36FIBoLfMlLJzlyHgtNolcVuwCpguxF4dnWN35dt3Z6JXAR4dfMcOJX+t0UAnnFgXInF7t7h4T00T/4s5CvrCHl9/e2JHTlZPnXiuH/zHgI5R8uHfkvAFIAOADBChQBAKCPLkUBqtkUAVIP350vqaN9Lol5Fo7Hn/sIItBtImz6mvlMdVu7Q9PWa8uUXb9hQYMxMUN1GAp5euqVnZpQP2AmUqAPSCSVIm7loEXFb7y2GKB7DOe5SvrokeU0y0zJVfdAhDvBB7AkUQPtCMNPuU6uoo++Y7JSU3GgXdEskMNmi4aupXK/+Wiqffjhs3OJBFlwZ0XNGi86j4L4HQpnDsl4BcOkqhrWamPwts/VdpQ4Nc8un25iywXw+GXKOPaXxZmafmH905uDPf9rdEPiGZJ2DUAtP7G3+QCgDdeacp3X0CAafVsQDg4HFJBu3e1jnyYGUreTImvv27zOM+LxGIJWPHvmcgOjCSCGbQAo4pX6b31rt8b/tQ2pJ1q1/ny4IbwAkP/tS+AOhDAh4o9VTLJKqd1iSfDzPeix2QQO+WeqoP3RlGVOQ7LifiexLG+pyacw7sruWuneFXumOoAJAuYkq+3yHgyre7mHCadDwQ0CfMW1P7bSIIznzbBSCKJ4pj/L6swX1zouxS+Qav6z+G1/7l5vCXe61YOSVTYN+fMKFQD/j/FGDMjdsDCAeEpCtAzF4QTinz1CzJdNxM+7lG2wtYYDkIeVEdzJt1A0+aW1tbm6nedPu58h2zmfjphH5vlnncHWQ4pztSz5VXAaDnzo2yrIcg4LTaZWnHE6Q5xFRS2lAty0VGm9NquwGgP8ab2zYv/duOsWcZNDwWCQBGgT/s8fXKjDnsP5wwYX+/7r/Mr9PpkbX/yGkg+fc2twAIn5FumJVIstadsIezdZcBPDHu7Z/58tKGmlaG0u40IkZ3xZii/UkIefzUFPPzn8o87ht2kgm7dBgVAHYp/Grw3oCAK9/+JhMODwYATR8Vy0vjtNruBOiaWD+YcH15fdv8Om8Xj33FIPiYUEawZAblPfb6elWb+wptYfTJ5JIJul/81Q8+JvaB37onENoLaL+xTwcdvbNqATuttlcBOjr+4Y+3Shvc7ZPJdeONEjyGKljaZYsMQzpmla52x+YldKMFu061CgC7Dns1ci9BwFlgXwrGAdLc2ExgV4HjAWaOLWAuuewvKPO42+TnWVxUNBLGLHn8M3gs1ECo3mfFyuJ0oFi1e4m9hQ03tzCfmWzJJ5wQFt0T6Eh3sHZxACeVra5e3JFsZ667rI5bGfybOB2SJdSAaaVu9w+d0d3ZvrK4DwLaewwOzgUBGxDA1NI17vrO6u7J/VUA6Mmzo2zrEQg4rfblAPYG2FfmqQkmTTmtdpmkNDdiIDMqwZhVvtotOezbbK/bi39nFPT71uxfXLvPt6vuSsXRqsmTrSwCN/qZL5Dn/hMf9Ilv/pFsYQZeJ+CojsZgxhndVVzdZbWdyCB5Dj+2NZII7FdaVyc5inZ5k/QRHNA+jNYyYF5W1lAzY5cb1o0GqADQjeAq1X0DAZfVUc1gOxG+HeBv3nuLIcfJjFkR74joU2yjozti1ZTybziK1xoEjQhxAWHLQGP2mClfftnUHlKe6ZNM+hbcGABfFZPpG3PqJ44KIvR7OD8gAP2esvqaK51Wx8kAJFNmB6Uf+TdlnpqEo5mdm8dQXgRkolUczQTrYnr56qq4zOfOjdT53gsLiifpzO9Gs6P7eEEZFQA6f88oDX0cAafVHlxIZ6CSgI0A9oq++QPLhRFHpLKE8ZK9ZJ6ReH5o6SfICPrQ9G9XxS4hxSFZc2hRjvhh4FUArtN1DA0gyPUTIn9rJYGTD/vXAgGa6gePbN0ElkEA1diSvUfkWOOTNtsIzU//6ZjHH3eXedxXd8W0Pjl6rEXT/DL5LY7Xh0Dn7uyjp6n64xpTtIcu6G0CBek/WNenl6+u7VGBKlVfOpJTAaAjhNT1fo2Aq6B4IrP+dVIQiBbnbDacdFLjShkUOmyv2IuXG4j2DnH/AJoQU2Z8+22UaTRWQc3UiecKgVvBGC0TueReboQGOkL+FmD+11aIW5n9B7QEMD9xCUjXed9TPW65fBXXXFb71Qx0tOzUJSdhYpPookbE1PftELRdJLAw316iE73N4HxZB2KTpk85twvrMu8it3YYVgWAnjITyo4eiUAbZ8Xle+FdZZ6aa1M1+tlCx4wsQe9H6aAFPXfwqlVyWSaurZwy8XAN/FciTAmVg2llAZVBILSuz+/5Sb9o768qV3xos43YZjB82cLIi+UCCjB+eUpd9Z1t2SeXZXTCEwS0k3/AN5Z5ajKuR5w005f51bKGmo7qC6QKa7fKzc+3l2jAB0SwgHFHWYP719064C5QrgLALgBdDdl7EEhWRWv7c/nmsvr0Co0/X+RYZBR0iuT4N4bqAe9x0KrWo59f7D52vMbanYJwvKSHkPxBsQEg/AXwcoDxf7t/tSLK0bN03NilAR0HxGYCBxhvnFRb1eGmr5wFp9VxJ8Bxx1hjZ4cJvyivd/9fujOWLHAS8MYmTT+xJ7xJL7LZCgMtGAHCSJAYCZ1HMmEUgUcxxDCABwDYL9ZvDUj6RZUuNj1JXgWAnjQbypYeh0CF1f4IAedGDWPU+4V/j9Pr69vduI11ZGFR0fgsaCtiyj8uPLyqMphZvHzsWAs0+oOBcLGsBBYtBRmuBBY+xe8EB24e9+WquAzkD8aPvT6g820JewKNWziwe0c1dGPt237M9Qgw5N5AtFZwXBCAfnK5pzbxBE+bc/VkQfEkjQMfARRLv/zG5p348H+mqGhYix9TGdpUEE9k5nEgGgNgxHYq7HSqun3EwDcE/pohXu1r5SRVAOhxjxxlUE9CwGl1fAPwhDibCN8T0bzSuuq3U7F1UWHxQiPxnAjvvyCedERV1TcfjB9/rQa+USMMkV8GkVrAgkKBAIQaQL9q/BcrZSZyXFtWUjKBhfgm9ObfegqoRedjT6qtfjUVu2JlJFOmX2x7kpMcFyVgMxj7lza4k+5XxOp5fMSIQdlZg+Smb5TemQhvbRL6rK5+8180pjjfr3EhoNuIUcgge/C/ApPAyYNZW7gQoY6Br8H0GTN/Ai2wIhXa73Rx7mnyKgD0tBlR9vQYBIKcNRrq2jKIgYcFG25qj0rBVeDYWwPLzd9Q1i/xAgH+a5amPWAg2ksu90RqAEe+AAThezD9YfLXK5KyYkouIanTzxgr1/1jvgDumlVTlfK+RDK/ZPUyEF2QeE2yZeq6YZ95a1Y1tjdBFfn2J4hwekRGcvtv0fSjOvvwl18VBgT2Yqa9mLEfEe8JkFymSa8x1oP4E2Z8CaIVgvnrAfrWr05YsyZa9S09hb1bWgWA3j1/yvpuRKCiwHERMbdbbD34os50eWlDdVIeG6fV8Y5B4JAg62fo6OcKjWhC8BSQfOuXv8cs/Qji/xu4NXBTSTtlJz8cP25hgHlOsDBMmP/fD37t2OqqY7oCDle+45dMnKwW75Iyj/uQtsbYMdOXPqTm7CPTYdeUb/UBLTBBB00iYDwY8utrbwCD0veNVgP8PxA+IcLygG78dK5n5Zr09fTdHioA9N25VZ51EgGX1fYsg05KSQ3zPWUNNVfGylZYHeUEXhB8yEe/AML/H/fmD2jAAjD9ft+VK9stSvLRuHFX+MF/az0SCug6r/IL7HtcmrWK2/PLabVLCuuHd5Bh/LmswX1d4u8RX2N+/4SMOLy9/Ai57LSNth1C4ENAtD8ASRDXfk3i9owmXsZMy8B4Xxj0D9LZB0lpjvugkAoAfXBSlUtdg4DL6tjI4JQfSPKUy7ZscaosGi+LyUNkuZkxUr7pR45/RoJBdOmH4BKGwG9mfB3PMJrMg08mTSre5m/5UgdyosXhdX1DC2Gf46qqqrvG61YtrnzHMRDsYsbgWN0kMKu0rpUoLcTwqUuG1BC9M+F9MuD4xId/qPYvTQcg/xwMTthbScsB+XaPj7cntb0vBD44rZ+WdEwLsiTCKgB0FkHVv08i4BzjmAnBkU3erwB+DEy/jPLEtO31J37yH6nphouI8CcpJoLLPTFv/qGln1VGg/bzQ1auTGkjWer5cPzYZQEd+8uM4ICsASwTxPTAEUe53W911ySEE+EkK2ZsLd0NFEOUFsuLxMDHgwLNh8o19RAFBB9MTIfohIMJGJGpnXIvgRgfMOnLsrZpy075vrW6WqY6Vb8g6Z1qCgGFQCICTqvjMYDPkr/HnoV35ttvknkAHSAmT8uUAMhpDQAh+geNsGH7F8HNx7grUyr/GBln2fixdzLjGvnmH8oJYOjgy46oqurW8olyfNfI4jw26vJkUZQCQz6MSxvcB1QU2H9PjHAtA2oEeBERzNurfUn67CCVQgZtEwFLtlNwv0cB8U7p6qplGehQXVJAQAWAFEBSIv0LgWDxcLEtetqFWsTwWKK3IGukLu4DKKVNV/mPLLzZ+7ds/9Zbjmlo8KWD6LJx407XmZ8IUUKEir4HGP88srry5+no6Yysy24fyi2QXwJBWuxw+zdicyQyH+BHZiwRoCU68TvlHrdc2lFtJyCgAsBOAFkN0bsQiD0Fs50q4elSj3tOMg9chY5fsp70tEycuNQBEbg2E9rjpROK9yddLJNv/TIpTL75B5ieO6JqRxqJ7kZ5UWHhKD9r34LTSqRKYhY1EngJE73LAf3d8tU1aRfD6W5f+4t+FQD6y0wrP1NGwGm1uSPVoZhwQnm9+8W2Oi+w2g4SoNcAtHEmve3SkB0ZtGTChFEU8H/BgCUYAEJv/kuPqK48qKO+XXX9yXzbFI1wFJiOBeGwzPSyj4E3BOMNnem9jmomZDaG6pUJAioAZIKa6tNnEZAnX5j4FekggRpKPdVxNMaJjjutdpkncFHbgPBjZZ6aczIBbMnYsf+VSU/yzV9SwulMX+q6/6Aju7F61nOWcYO35viPYGJZtvG4RBrnlP0gyM3t15nEG+V1VTIzWLUeiIAKAD1wUpRJuw6Binz7y0QIslUS+LelnpqEYu8h22SGr66zzHod35G1xIb8dAuvLy4pkQRsV8q3ftl0oAYB//Qjamq+72i8dK9XWB2TiXEcEc9iIKOviyCNAvAaQX99s4Z3O5v5m64PSj4zBFQAyAw31asPIrAwv2hagES08EfAwCPnJXngOq2O3wL8h9QhoFvLPNU3piq/2DH2ZCZ+Rp7RkwFAB9YHWJ9xTHXHuQKpjuG0Fh9N4FkAn8xAfqr9WuXkOj7eYvDrxix68ZRqdSwzfQx3fQ8VAHb9HCgLeggCznz72yDMlOYw48nyBneU00b+FjwdRFsXgahNOgQEuWbCCVERvxjryxrcw1Nx81Xb2Kma0GX5xCCTJgM/EeHgI6uqPk2lf1sy8wsKcjVoJ5BOJwI4GpRRxu2bAL9GOr9Zurr2s87Yo/r2DARUAOgZ86Cs2MUIJCR+gRhTYtkvZZlAFkKycrbuCRB+AGNojOk+jbF/gKgc4FtiXWKIk8s9Ve1SKr81duwYv58/BmFU6MwPbdSJjz62KrNz8JLz3u+nU0B0ApiDgS2dRsAXOvFrQvL4C35PLeukg17vkFUBoHfMk7KymxFwWu0fAdg3OAxhflm9+4zIkE6r/eLtPPL3J5hwNwGTYumTGdgvcobdabXLZLDJ0Y8A5gfLG2ra2SwGXrYVy4Sn/WUxGAY2MvTDjnfvWNKxPSgqxtimkhAngnX54N8jHdgoy9iSlWta1rxu7cNZW8WrKts2HfR6p6wKAL1z3pTVXYiAq9B+POuIHPX8IRAwFEva4xDHDT8EcGnMcFWCxQVMPIfBl0V+J/BJpZ6aKG+/q8B2JDO9HtPPU+ZxF7Rl9gt2x5+J6Vfhf5BNpOPw4+pSW/ZxFdgPBGM2CLOZYUsHGi0nZ7NxyJC3m9c13lvmqZLHWVXrRwioANCPJlu5mhyBinzbCiIKnubZ/uZ9TbnH/dcFowv3FJpYFMkHCPcMFkp3Wm3XABStt8tEF5fXVz+QqN1ptb0KkDxOGfqwEAF7smSwZwrtcwRooXzzB9jHxDNPqqn5ot03favtKDDmEEg++EMkbCm2gYUFGH74YRg6dfe3xp8y+4gUuymxPoiACgB9cFKVS6kjEHuih0DuUk+1I8mSzyes8/kyY9VldZzDYEmBEGpt0CPLS84CxwFgXhoVZcwpb3A/HWvd0zbbVOhiGQEDiLAOOs08ub7qm2QePFVgn6UDZQQ6iZnjGDo78jhnxPC1Y06dM3L4YTMxyGGPhKSPzObcaR31Vdf7LgIqAPTduVWedYBAiNNHc7c+y8XJhMBsgM5u7cq3lnlqgkc4F+QXHypIXxzz8F9Y1uAO1vZtqznzbcvCXPcyWkR1SXlJsgaj/okgWAlYy0KfeWptbVzd34VW+z4QmKfrOIfTJFczDh78WcvGjY9TAItmfv7fJiG0HxPs3GQ2m1Kmu1Y3VN9DQAWAvjenyqMUEXAV2F9nxpFBcaIVYNYitWyJ8C1AZ5TWV38SfFjnFx3CQrwKDjF8Sh76Mo/7wI6GqrDaLyEgxNhJeKKs3n1mpI/T6lgGsNz0XWsI4JBTVrtXyWvPjnZYWzQ6k4jPYPCEYCZwOCGsvfG0nOxm45BhH2xdv/5R6M0vlSaQznm9TWsBjqNk1vXAmLy8PFUlq6OJ7KPXVQDooxOr3GofAdcY26ks6KnkUnznZo1vjBx7XGC1jhZs/Cyy1s6MDwY0G485qXHlxo5wduWPHcPkb5ByDLxS7nFLegU4rfZnAJwMxmIy6POyf8retDVnWymDTifCzBSe98GhjabcNcJgfH7b+nXzS+vd0eWmZHZ5vT6ZXyCLsUQbs364xWJJuSZBR/6q670LARUAetd8KWu7AIEg382AlpUMed4+ttEa4sC80obadyO/ygc4yL+YQ/z+Mj/grQF684npFBF3Wu0yaWoqiJaV1VfPcBU47mDmXwL4hME3EILJWedH6gd05GKWyeTR/S2PBX7a8Eg6DKNer88JIPZEkwxLF5jN5n91NKa63jcRUAGgb86r8qodBFz5dhcT4tbumfGiwLazY5dNZCJVSwu9S4TCsLoXyjxu+bBOq1Xk2x4gogu3P3y/YcZtRHgiLQUAsky5jWLgAOeW+jX3ZMqm6fX6/gLg2vgvAPzRYjH9Nl17lHzfQEAFgL4xj8qLFBFwFTguZObEI5tXl3ncd8eqWJhvL9GJFjN4TPjN/6nSBnfC23Nqg1YUOC4iZskamlbLMpswatbx/gHD866ZesVl96TVOYmw19t0NcB3xX3zEOabTKZo0ltnx1D9excCKgD0rvlS1nYCgScLiicJ1pdTuFQjwGv0gDht7ppquTYebcE6uLq+uLX+b2aUzi+MHj3wJ8qeIwTJDODYSlpteiGys3nonnuutJ939vjc/UKJybLJLxRNozNzc3M3ZAqBz+ebx4z5sf2Z8a7FYjo0U52qX+9GQAWA3j1/yvoUEZAP4y2GnE+Yo/TNS1uyxfFnVFXFHY10jSmeDsEvMNgcVn1fmcd9aYrDBMUqrMUnEXheQgZxuyryDjkYI487FnmHHPx23phRh69fv36sEJrMN5gR6UiEWmY+3Ww2xwWsVG1rbNxwGJGeWEB+pdls6pDSOtUxlFzvQkAFgN41X8raDBFwWu2PROvXMl4ibDuttKFhS6w6Z77tDBD9p/U3urHMU31rKkO6RtvG6Zpc5+dzCZRSMfRsi+kL0/77fzLuul+da9gtdBxfvulbLKYTImN6vd7zmOl2is/2vXPz5k2/s1qtcfZ3ZKfP59udGYkZxl6z2WTpqK+63jcRUAGgb86r8ioGAVe+fR5TdOmjmppz9ihd/81PcQ9/q/02ANfH/Hb+du4eGTTabK78/AGg7DIQLmDm6Jt6e32yck3fC4O4f6tv3QOltbVrvV7vqUDccdRXzWZTsCBNpPl8vqHMkl2Uroj8RoQaXRcXWizD3kx1stetWzdS0wzfJcqbzSb1HEgVxD4mpya+j02ocicegQqrfV8C3gOQvf0Bv5UY+8bSPMuloc0i5ylQsPyhLL3YDBanlDdUB8tCJmvz8+0lBkkER8GM4Vg66KTylGUMZOeaX9zy3Zrby1fXRgvOSGGv13saQK5IR2Y8Z7GYTk6mqLGxcRpAj0Z4i4L2Mh7XNLoy1b0Br1eW541vLS3GESNHDl6n7p3+h4AKAP1vzvuNx+EkrOUARoYe7jS33FNdEQEgzJcvOfqnBn8j/Kjr+lFzG2r/mwwkZ6F9DnRIauiUCNSycnPd8Pvvblnf8mjiF0fM233cxqzcpLVY2j+V4/V6rwXoNwCGhfWsFoLm5ebmLulocr1en0xei6N/YNYnWiyWFR31Vdf7HgIqAPS9OVUeBakb8gcwZck3/72DD3/C9eX17tsj4ITpmmViVGi9nuHRDPpRiVw8T44eaxEG/8/kgz8mH6BNjEV29lYxYMCCQNOGv8Z+abTVobGx8RwiESWXY8b9Fovpko4m8YcffjD5/f4bAboq5uvhdovFFLuMtYMar9dXv2Ohdz4g043ljuxU13s2AioA9Oz5UdZliICzwP4UGKeGXuzJWeqpLm99+NuvY8afIn8nomUa+efMqauLro+7Coung/nnzBzl7mnPlOzhef/dtn7dnaX1NQvTMdnn8/2cGffF9LnTbDbJLOGUWlNTU5Gus/Ql4t83gLjJbB6W1A6fz/e/7ctMe8YqJ8Isk8n0UkoDKqE+hYAKAH1qOpUzEoEKq+03BAqe3mHmzwfpW2dI6obHR4wYlG0c9B9ZOCWKFOOOsgb3ryN/dxbYSlnHdUQU95BMhmyW2bSBA4G7m3/a8ECy4vGpzEZ4OUdm6IYb/85sNqdRcD7ULbw/8A8iCn3xMN7RNDonNze3LtaOxkbvm0R0eOxvzDjTYjGlnZ2cin9KpmcjoAJAz54fZV2aCLgKbKcyh0/VEL43BMQ+c1ZXNQTf6HX9sQinj1zvZ+D08np3sBJYRYHjLAKuA/OEjoYcfdKJGDNnNgZPnrpPXt6wIFtops3r9crTPUG66VDrHDeP19t0LsB/RIjnqJkIdwcCgT/l5eUFieu83qanAA5+GXXVmJn6rvrtegRUANj1c6As6CIEKqy2owgULGvI4CbomLnNv7kq2zjwNlDrEUpJwqZr+qma3/+9TlnnAriKwmRvbZmSZcr15+611+JxN1x3ZJYpesz/L2az6VedMd/r9d4dv46vH2mxWFI+2plsbI/HM2DAgEFXEkF+2ciN4u+Y6TqLJffxxkbfE0Q4PbYfEX5uMpnSpqrojN+qb89AQAWAnjEPyopOIhCuvvUGgAHBACDE3qTLUon6Q3GbnkR/py3ZN/CArecR+Hrm0AmhttrQKbvDOm8uRh939Em5ubnPe71NywEOLrMQUZPf31IwfPjwuJyCdFzxeptkzeGfRfoEAlrJ8OFDq9LR0ZaszB/QdVwmBF3NzCaAPgZYngCK+8ohwuUmk+nerhhT6ehdCKgA0LvmS1mbBIEFhYV7kq69Q8CQ4MOf6GLo+gFEFLOByzJrVm6u5gJBZk5re2COPPYYFJ59BgaPHy/3Eb63WMzBQLF+vW+eEK18Osy43mIxRU8XpTtBjY3eN4goeqy0O5Ky1qxZMzArK+ccIsgi9jsscTHTFRZL7t/TtV3J934EVADo/XPYrz2QFAzQxPsR7p7t6/qVRBiMmDd7AjYw8BWAdit4aTk5/oFFhS9Mvfuuw3NGjQwGk1Cjm83m3N9H/ub1+mQFrUgtAZ+uB4oia+zpTobX66sBUBTut9psNuWnqyNVea/XOx2gHXiEmHG5xaK+AFLFsS/JqQDQl2azn/myYLTDKjT9vwAlFHZJDwjjsGE/ZeWZ/7H5y9W3HrZi6dlEiFsOIcLuJpNJBpBga2z0XRovw7eYzeab0hs1JJ2QmbvUbDYdlImejvp4vd47AbommZz6AugIvb57XQWAvju3fdozV1HRSOja+8xsz9TRQUUF34H1385auiTK+eP1+mRGbAw7Jn1sNufulzhGwpv7T7oeGJuXl7cDz057tvl8vinM+DwiQ4T7TaaOk8DS8Xfduh9KDIbAI8yRrx96E+C4TGa1B5AOon1LVgWAvjWf/cIb18jiPDbqcimjOF2HRVYW71bsWBbY1nLFrMWvxx3h9Pl85cxYEK+Tf2Y2mx9OHMfn881lxpMxv+9A4taRbY2NTWcT8aOtcnyR2Wx+sKN+qV73eptu3L4dfouUZ+Y1AM8GxBFEkMdEo00tAaWKaN+TUwGg781pn/ZIPvyRpS+J4fVPyd/s4cP9w6bu/vK61185N7bsY2xnn6+pkpljg8oPmzdvGtUW7bLP53uv9c1aaqLzzebcdhlEY8fzepv+CvAvIr8x69MsFstHKTnUjtD69Rv2FkKXgWVyWMxFhAtNJtMPXm/TTdsPyd4c210dA+0s4r23vwoAvXfu+p3lrvx8kw7j+zS/gs8AACAASURBVLFsmB2BkDNq5OYh40ruXv+fx24qBQJtySd7+2fGny0W03Xt9Ilbwtl+ymiTEDQ5Nze3tiO75HWv1yeLzx8ckd28edPAdDn+Y8f58ccfLS0tfpkBLSuQySYTwa4ymUzREpiNjT5ZkziBL4gvNJvN8risav0MARUA+tmE91Z3XXb7ULTgPQZ2T8WH3ey25iF7TPnHW3+7+1c3A3pHfZJx5Oh6YHRH6/pJ3qjfN5tN7Z42krbU1NTkDBkyNLagywqz2TSxIzvbuu71Nv0ivNwTYfp8TZaiTKSC8Hqb7gL46ng96X25ZGqj6tfzEFABoOfNibIoAQH58NdyBi/3b9zY4Zr/ILtt47DdJ/3lwHvvSZlPp7Gx6SQifjZ+WH7YbDZHE7TamxSv1/sRQK0FfMGPms1mmWHcZlu/vulQIXhxRIAZT1gsppSI52KVrl/vO4GI7yKiEvk7M6+Vb/1ms1kyne7QGht998hN39gLMjPYZDLF7meoe7CfIKACQD+Z6N7qpitv4m6G0QO/avH5CtvzYcjkSTBN2+8v026+MW1qBq/X9/V2Bum4t29mfYLFYvk2Fdw2bNhgDwT0TxFORJN9iHCbyWSSnP1Jm9fbdPP2x3X06CgRLo5dquloXJ/Pd4JMQgMwPSJLhL8z82/NZnNcneNYXV6vT1I+RJaIwpf4NLPZnBaLaUf2qeu9AwEVAHrHPPVLK+WGb9bI3E+3er1j2gJgyKSJsF90IcwHHfgfi8V0VrpAeb3ecwGK27glwrMmk6mVMTQFpT6f73hZzzdWlBmXWSymfyTrnrj+D/Bks9ksA1G7zefzyQIykuNnSozgV7ouzs7LG/a/jvo3NvoeJ0Lcl4aig+4Itb57XQWAvju3vdqzCmuxI2vobp+0/PBj0pKLQyZOhP3iC2A5OJI3ldk6ttfrawAQF2CY9f0tFkvSqmDtgdrY2PRbIk5YeqKrzebcu2P7SWqG7OycTTFv7k0mk8nUnm6v13shkfh1Qt6D3OS9yWQy3ZHqZPt8vueZES06L/sJQTNzc3PfSVWHkus7CKgA0Hfmss944hpTPF0Myloc2NIs6/jGtewRw/WxV/9CjDj6yIQr6Ve18nq91wB0Z8Jb+7sWi+nQTMH0er3/B9CVsf0Tl3e8Xu/RAL0akZFfDhaLKe6hLK+tXbt2kNFolMs1sgRkXLYzM79lMGgXDhs2zJ2OrV6vT5aNTMg2Th+7dMZUsj0XARUAeu7c9EvLnt5zWnlgQ9N83e8XsQBoOTlsnjH91cJTTjx36IEHrU0EJyvLOHzw4MHrUwVtw4YNuYGALnl44r4wmDtPx+z1Nv0L4PMTgsAZJpNpvvzN6226E+AoLQMRrjOZTH+OyIeOc7ZcQUSXMYdLVoYvbl++qWYWvzabhy1K1ddYOa/X9wUSTlLpuuh0XYNMbFF9dj0CKgDs+jlQFoQReGH6QddvXr3mNlnOKtqIYNp3n5WDRuWdPOPee79tbGwcQyTksk1cS5dF0+v1ySpc18ZroY/M5txpXTEhyXj3mekUiyX3Ga/XJ6t0FUTGIcKBJpPpfa/XKxlKr2XGhUSUk2CHl5lusVhy7+mMfW3UBLZuP/G0A6adGUf17R0IqADQO+apz1v53LQDH2tesyZuE3fw+PGNQyeOv/iAv/01+rbr9XpnAPR+/Ns1NZlMue2uocfKNzU1Feo675Cs1dWboT6f70lmzE0IMgsTKnJtYdb3FkLIOsVtbWL/RdI3yEzezt4IXq9PnhAaHKsn3eDZWRtU/56DgAoAPWcu+q0lz007cGnzmjUHRAAYkJ+/ecjkSTce+tD9f00EJTlfD9KiUU52EoaZP7FYzPt09SR4vT6ZhSvrD2TQ+GFd13+Xl5cn6ae7pCWwj0qdXrPZZOkS5UpJr0NABYBeN2V9x+D5BQW5g0fmf7rlu7XBM/45o0cFhh968H3T//ynK9ryckcqZilJ68zm3BGpINPY2LgvkdiBb4eZZlssuQnJYKlo7Fgm+XJT2/2I6NlAwP/rvLy8VR1rT12ijeWzTmUgpz66kuyJCKgA0BNnpR/YNL+gwD7QPOJ/2xq9wU3YEUcf+bbjpt/O6ogLp7HRd5lMeEqAyGc2m8ypwNbY6PuECHslyH5uNpv2SKV/pjKNjb7nieKPXybR5RKCbsvNzY1SRGc6XrJ+YZK45bHXmLHYYjEd1pXjKF29BwEVAHrPXPUZS1/Y/8BDt/qaXg9s2WIcWFiwcajDMfvgxx5+KxUH2wgASGUd2+fzXcKMHRKzuuvtX27qMtNZRHQywO0uLzHTORZL7mOpYJCpjM/nm8WMFxL6LzCbTfMy1an69W4EVADo3fPX66x//vCjzm+uqXvQYDIJ85Eznz/kT7edlI4TjY2+S4h2fIgDXGA2mz1t6fruu415WVkt8sx8hCwtKMqM/1kspmCR965okYc+wCcRxfIDpaKdrzWbzXelIpmJjEwm255PEGUGDeng/zObzVFK6kz0qj69FwEVAHrv3PU6y5876vi7m1esuGrwtGn+URdfeNqeR8xMe829sbFpNhE/neh8R+f3vd6mRwBOQtDGR5vN5tc7A6Zk9hw6dOhsZjof4MPT0CUriCUkeOFdo1H72dChQ6vS0JOSqNfb9DuAo7WNZSci/MpkMskjsar1QwRUAOiHk76zXb4ZEHudft6jWdYxZ+62336enOKxR+0zZVxKRGuJtiaWUYxcZ8YNFovpT8l8a6cYeqeyfhsbNxxGFJgHUDmAQenhyq9v3rz55EGDBp3FDEkaJ3MAYhrf8uOPP/7JZrM1p6e3benGRt99svhLwjiKCK6rAO6FelQA6IWT1ttMfv3dj+41GsSlRoP2uQhkHTZjxiRfpj6sW7duN00zbEzSv82SjD6f73PmOPK0YHchaI90N1w3bNiwl67rZcw4PZFDKLlPJE8cvRLL/CnlYvcdwl8Qv5BBLGGJqkFy/G/dunX+6NGjN2eKWaSfz+d7kRnHx+rRdbFvXt6wuI3hzo6j+vceBFQA6D1z1essffrNN81Gzn7GqGkHGQyGldpAceDMffZp7KwjXq/vKwCTEvXoemBIXl5eXHDwer1XA7TDujoz7rNYTJemYktjY+N4IpoLUGl8wfj2evNrRPR3k8n0ktfrvQWgG2OkfzKbTXHJWPJamALiNwBdlaB5A8D3GAyGvw0dOjTj4JmM9nrbNuPwUaNSp9BIBS8l03sQUAGg98xVr7J0wXOvj84yGBYbNG2swWBwQzMecPzM/Xbg8MnEKZ/Pd1uYCz+uuxB0Vm5u7n8iP65fv360EFolgIGxgkTkJUJxbm7uhrbGX79+/TghDGXhrN2UqpBJvcz8b00T9w0bNkzyDAWb19u0FuCYPAV61GzObbNgzPr160fJzGCApExsoJBfAfe1tBj/MnLk4HXpYuf1+n5KWKraZDab4jbF09Wp5Hs3AioA9O7565HWP7Ho5Xwi8Z7BYCgyGLT1grDf7GNnplQnNxWH2lrTB/CS2WyaFfPgdQF8WqLOtoqgyyQxQMwmwonJvjDase2/zHSfxZL7eKJMY2PTmUQc97uu08y8vI7plz0ez4CBAweWA+JigPeL1c2M+zWN7ki1/nD4FFRi0PjGbDbt8CWVyhwomb6BgAoAfWMee4wXDzz2fIExm5YaDQarwWD4STMaDio9fuZnXW2gz9dUycw7lIjU9cD4vLy8lT6f7yBmSOrjuEaET00mUzQRbP36DfsIwfMAnhNL0JaCvWu2f0U8sZ2f//H2Crl4vU3LAY49ZlprNptsKeiPE2lqapq6vdzjxcw4I3afgAjzmfles9n8YXs6Q37qH8fKEOElk6k1YKZrk5Lv/QioAND757DHeHD3A4tGZQ+AfPjbDZqGLE07/vRTj325Owz0er2/AGgHriBmfmbjxh/nDR485FMiGp84tq7ToQD9RKQfA/DZkVq6qdjIzM0ALSTiJ8xm82sd9UlGXCeXriwW0+0d9W3revirQO5HnBPP688r5J5DIBB4InEfROryer2nAeRK+Ir4h8ViuixTW1S/3o+ACgC9fw57hAf33Tc/tyXL8KFm0MYaDQYYDNo155efsMMDuquMbWpqGqbrLEnSBuz4lk+LmXlmkrEkE6YfQMrMoWEdLzOT0+/fumjkyJHRSl4d+eL1+hYAkEdEo81oNFiGDBni7ahvKtfXrfuhRAi9LLRkxZGi9DJIPSEE7svNzZV1ioPN5/Ndz4zbYvXK4vAmk+neVMZSMn0TARUA+ua87nSv/u9fzlcAHEPbeYuNBsPTl5x9ilxS6dbm9foeBHBBNwwiTxK9CPAzgUDgleHDh8vN07Racspp/rfZbD4vLUUpCkuiN0CcTMQnbafLDpdL4+VE9C9N057y+/0PAhQ3J8zicItl2NspDqHE+iACKgD0wUnd2S797WHnLcwIHXMk1IrslqlXnHGGfNvu1tbY2DiBSHzTFYNsr77VyIxnZZaxyWSSwaxTzefz3cccn3SVSd5BJkb4fD5JsHeCLEAD8DHJvpKkXl0PjM7Ly5PZyKr1UwRUAOinE99Vbv/fQ64jQdxKpaDzCVddWP5iV+nvSE9jo++58KmdjkSTXGeZAPUKM79osVh2oIjOQGGwSxsnbpaazaaEWryZjpB6P5lkNnjwUFlQJnGt/0ez2RRXDjN1rUqyryCgAkBfmcld4Mc//u0a2RLgLwEEC4oQ6PUrf1Z6dHebIs/JExmmEeESgBOrw7c3/BYivMFMz/r9214eMWLE991ha2Oj78+SYydeN5eZzea4TdjuGDtWp6SqEEL/LTOS7Yf812w27d/dNij9PRsBFQB69vz0aOvufsj5DhEOiRgpBE264rzSLlmSSXTc88MPpgEt+olEwWLqk1MHhldvP975iK6LxXl5uYtT75eZZHhzWtbXjeUGqjObTUWZaUy/l8/nm6frfDUR7c3Mm4hIEstNTQhI3bYfkb7FqseuQkAFgF2FfC8f928PO+WZ9PsjbhDo/it/VnpJV7n1xRd1uQN2wxGaEAcZDYZDDAZtitGgQW4yp9m2CEEzcnNzuzwXIZkdXm/TjZK/J/bazjhtI5d6hgwZdhHA8stjNIAmItzR3Nx8T3b2gFsBTqB8pqvM5ty/pYmlEu9jCKT9r6mP+a/cyQCBex5alK/DvwLUyq2vkT7m8vPndqp27eLlyy0Dtf9v77oD3KiO/szb1dmY6pONwUWrkwSmhN5LIIQammmfDYSEAKaFhJZGyJdOEkgA24QSsGkJX4JNL6GGltBCJzhUrU5PNqbY0hkMuJx257vRSWedbpvKne907/2DuX1v3rzfW+28MvObkUeENG2qrmn7h0IacDxB0a2057/Vq0wfIuIura2tmerbBm/x6aefhlet6mxHxHL6htzKlSsmNYLMzUmTYlwAG+MLEHFDrkMEFwsBF5eSyGezuX8BwJ4VRmnP1tbWZ4KPTtVsRgSUAWjGWe3nMc2cM68XxQIC/uWc6VO/WUu3Dz7xXFRDOErTtSNa9NCXdZ0/+BrHEXR/8DUN9JAOoYIh0EAL6VkNxVOcxB1AvIBoXwEAmwfo+y1NE3tssMEGHQHq1lQlm+243GGl/fNweHSvHUFNwisaFd1M+WKX3WCLl7l4k23nf1KZRD6bzXHsQi8+pJUrV6zdX0apEeNTMgYGAWUABgbnpullxnXztkVBPQFGPDCb7L3OP/U4XmX6lj/f+fCGAuioFl3bX9P1HUKaZoRC3R/6Xh/+ogHQNK0j1KLf1rUjeEZr0V42Nt74v6VOnD+49AIA9uLNKVOq3zxxnP3+4TNNE5FGGp1sNrs/InJqyyNWjwtvJ7J+NmbMmLcqJ6Cjo2Mv26anKv7+RjjcurXvZKkKTY+AMgBNP8WNHeCsOXPvJyjnlMcPzp0+lc+cHcsf/vzntUP5EXu2aPpemq7vFdLEnrqul33sebXfvcLXdW2FrmtvhfTQC3qL+HuoRXtju803dySRc+b6wUfD4dEH5HK5PxHB6U4KIcI9ra2tZR/PxuCTy+VuJoJeuyBE+ENra2uFN1D1/XV0dERtG05CpBOJwChJQORgNfhJa2vrf9ykZrMdPwegX/R+7s1GWr2GqsVQRUAZgKE6c2tA71lzbv0SAbLbZ08hoL+cN/3YXh++GbNv3RwRjwairwHi7ly5GCFcPNpZfcQT0sRzoZD+uNBDDxy67+7PBhkWn3uPHLnWG0KIeKk+Eb0rBO68+tw7e3tl5GuZ1o91dnZOqYbWwUuvXC73JSLojQvR8ny+JVoLbXOpr25vHpiO2MeN8wHbtn4+duxY30QuXXxEj6yODO6WTARnjRnTenUQrFWd5kZAGYDmnt+Gjm7W9fOuJaLTehkAxO+dd8rUy6+4Yd4WZMP+AHQ8ATgewRTO83X9+RZdPBXStCdHwOinpk7dfXm1Si5a9MHVmq6fyfKKpUPTxA7lHPz892y241EA2s9ZPr4gBBzolRMgqF65XO4+Iuihoe5uh5eHw6PZZbWq8vHHnyQ0zWb65xNL8RWrBeCjRNZPx4wZ8++gQrPZHOM7srz+QEUkB9VR1VtzCCgDsOawH3I9z5wzlzlyKhOI8Lnz2L4fq8LwFgDB3xHoBSKYf+5px/aiI64FgFQqc7ge0u8pXRYLITi1496jR4/uQ/384Ycfrh0KhR4DwF1c+np91arQ/vVkxHJm/KQV+XyLUc3qP5vNTuu+0MU+SeUR4W7bti+u5sPfbQCzBwBgJWvpknC4ledLFYUAKAOgXoJACFx+47ythEWuZ80IsIIATQB7PiI8gwD/PPuUY18PJDxgpffee28saC1vhTQt3OMlpOsnh8Ojb3QT8cknn7Tm8/bDALSjS50Fti2OHDt2g5cDqtGrWjab4wvWvXq3xSvC4dHn+MnjBPcAcFqR49+BlgGvt+38Hzi/gZ8sp+fZbO4PAPD9Ct3uCIdHH1OLPNWm+RBQBqD55rRfRjRjzq3TEXB2X+F0m22JX59/+tReZ+D9ocT8t95jb6BjSm6hekj/w4SNx/leshZ95W8GwD7ZwUp62jacOXZs65+q0TubzR7UtbvoQxxHZE8cM2YMRyD3KRwpbFmcgAZOQYSexDRlFbNEMNu287M23HDDulJoZrM59tbatlyJWsZZDSaq7tBCQBmAoTVfa0zbGdffei0S9jr/71aGpp47/djb+luxl197c5oe0m8tuYrqun5/zJh4WDX9OnvElEuozjsml+t4hYi2q9Dh2nC49YxKvXK53MFEwOf6nFjeqcwHoFmffvrpLW1tbSuqGZdT3WXLlo1dtaqzT95gy9I22XDD9ZkaQhWFgDoCUu9AMARmzpnLvPFOpGIXnTt9WjcVdD+V559/dRPRor+q6/raxbP/N+3OdXfZcsvqefqXLFlyFKLgHL3lXD3lmr9OZB/n5FNfXimbzU4FwLmVQy5f/S9evHR7xELCFk7j6OgqyxTUAOKPjeblz+VyxxIBJ6QpL2+Fw61b9NM0KbFDEAG1AxiCk7YmVJ55/dyHgKAP0ycCvH7O9Gm9jhkard/Tz7/yH03XtypSQiwdqY/YfrPNou219pPNZrfoIkpjz52Yuwz8WTg8+tduz51yEiPCxYh4CRF9GwBPcspZXCbvOsvSLt1ww/Xfq3UcXu2y2Y4bAOik8jqIcElra+sF/dGfkjk0EVAGYGjO24BrPXP23DsB4UinjgXpk84+9WhmwGx4efSf/746pGtn6lp38FgopH9l+603r4xsrbrfbDa7HhHegghex0ivC4HfqiSSW7Kk42xEciBSo7uIClnR+qSpLCq4jAn0bDs/o97zfb8BZ7PZhQA4oXc92iMcDgeKtfCTr543BwLKADTHPPb7KGbNnnsLIXzdqSMqxgI0WokH/vHsEZqOd5U4gUIh7dTddtxmTiP7yeVyPySCS7xl0kXhcLhwzLV06dLRtm0niarKK7wIgC6zLOu6WtJLVjtep8A0RFjc2tpaIItTRSFQQkAZAPUuBEJgxpy5f8A+LoXFpgTmuadOSwQSFLDSvPsemzByRGi+rmkbsAEI6drlX9ljx6oDq4J0V+Tx4cjYg93qE9F7RNpxQlhnAOD0IHK7LnzfJMKLx4wZ/ZeA9RtSbcmS3E8Q4aIKYY6X0w3pUAkZsggoAzBkp25gFb/i+lsPsKlPUFGPEoR08HmnHFt3Lt2SwNvue+wfuq7tWzj20fUHD9xnN9ePc6OQyOVyhxLBlQCr+XZqkY0IHJTGPEADlhqzXM9stuPFyrgH28avDkRCnFrwUm3WHALKAKw57IdUzzfeeOPIT6xR7rQNBC+ee+o0NxbOqsZ6yx0PflvTtKuYJTSkacmQPWKHgw/etd+TzLOS3dHDI34JUMg8Vm2ZKwT+bvTo0Q0NgKtGiSVLlkxAFL3uY7q4fxZ3cf+o459qgBwmdZUBGCYT3Yhhzpoz70ECOsj9mAS/fd6pU3uyhNXS5w233L2FNiL0kq7ra4V07XMdQzsddejefWiOa5EdpM2SJR1ThKDziSqjez1bP4AIP2ptbZ0fpI/+rJPL5XplauO+EOGa1tbWhmVr60/9leyBRUAZgIHFe0j3NnP23BMAwes8exlZ+uTzTj/6g1oGevm8eWutvarlxZCubckU0S0h/ehjp+x/Zy2yqmnDnDlEeDgiHgNA46ppW1b370LgT9bk6p91yWZzDwDA18rHIAR+ZfTo0XV7TtWIi2o2iBFQBmAQT85gVG3mnHmvA5BrMhFE+Mc5p0zbvxbdr7jhttkhXZve7fWjz/zWtIMr8tjWItW5zdKlS9ssi74JUGA3dc1nUH2P+DIindva2vp09W3ra/Hxxx+vo2k6E/aVl/fD4daJ9UlWrZsVAWUAmnVm+2lcs66fu0/X8QhHBXsUOuvc6cdWxTd/+XVzpwoBc7tTQGrPnXHCkYU8Ao0sixcvHi+E4AhepmPYrU7ZnGTeIwCO3gSAOy1Lv3mgqBey2ez/AOC88nGxi+uYMSr4q865btrmygA07dT238BmzZl7L4FHABXCcgG0W1A20MtvnjdBdBKnelxfCPwQacQO3z1lSl0J5kuj7/7o68cCEDNgBv3o84XzrQB0BwD+DAD2KEezi8Tt3tbW1ilFf/sLAeA4H7SfQ4SbWWYpYU1/zE42m/trX13oS+FwuCeNZn/0q2QOXQSUARi6c7fGNL/shr9N0mzB1NAbuCpBkBEa7nj2yVMX+yk68/q5jwHBVwFgBRLuec6pU2uiZi7vJ5VZdECLjqfqmn4Mu5L6F3oUAJ4HgGfD4fBDXD+bzZ4MgNf3bkvva5q2VXmeXw4OsyzrSADBhsbn+ItuB4B5nZ2dDzQqI1lJv2w29wkArFem7+vhcGu/0nT446pqDGYElAEYzLMziHWbMWfuEQhwl5eKCPiqvhL2OuusqZ+51Ztx/dyzsNv3HhDo1HOmH1tTpO8T7e0jN/hi5YEhoR8ZCmlTCgFkPcnmdU4aU6nCAgC8HcB+MBwO88e/V1m8ePG6QuhJAOrlPokIx7e2tlaSrPW05fwDlmVNIypETffaOVT2gQj3EeHdoZB273rrrbeknul2Tv5CPwiHw5fWI1e1bW4ElAFo7vnt19HNmnPrZQR4vk8nT6xljTr09NMP+6Ky3mXX3bqphvgyYCHL2B3nTp9WdaKSJ55+eVe9RTsnpIkpIV1fa3WimEIAGfCdQolCusvLZz4RJ1K37/bLruV8nAIPhcOtvTxsvMbeTcm8ah8A/CoRfQURJ3vU/xcA3Wvb2uNjx27wSrUTt2RJ7mpEOLO8XT7fudG4ceM+qlaWqj98EFAGYPjMdb+MdOacudd1pzJ0LwjwghYKHfydE4/KlteaOWdeIWIVASWOXLX12SecECjY686Hn9kwpMEJLbr4uq5p2xdZQrs/+IXI4Z6k84t1XX8ypGmPjRih/z0cDgcirOvo6Jhi23R3xYiWEdmbuyV6CQIuG4SVK/Nf7vKU2hPA3gsAd3Bqhwg5InwMkfiy/YHW1taMn/xcLvcxUSE1Z6GU7in82qnnwxsBZQCG9/w3ZPQz59x6IwB+y0sYASSFph18zknHFOiPZ10370gSVPDxtwF3OX/61Be82l9/633btLSETgpp2j4hXdu6Z6XPK/yeox5teSikPanroYd0wMe23HKTqi8/Fy1aNGrEiJFvA8Ckcn2I7JPGjBlzU0MAKwrhTGUjR66zMyLx5fQuXUdCbBB69dtdld4DwJeI4A0h4DUimh8OhxeUdOno6NjLtqmXnz8RHjlmzOhKI9ZI9ZWsJkBAGYAmmMTBMISZ18+9AQh68c/30QtxqUA4wsLQ68Je9RYRbISAvzln+tT/dRvDVTfdfpymaWeGdP3LZSv74kq/cMTzHz2kP9SiaY/stfv2j9WLRTbbcakDDURVRz/16MC7hK4L4p2JCruDCABxjALHXVRQO8OniPgaEbyCCNsQUVmyHvw4HB5da0BbPeqrtkMMAWUAhtiEDWZ1Z8yZOxsBfJkyCeAFBGDeoDfPnT5ty/IxXXrtX8eEhDiMAA8DhP0QYN2eHMDdrKBvdhmDxzRde5L0kU9OPWj3XKMw6ejo2Na2ifPolpcltm1tM3bs2Ia4pdaqazGGYWsibGPDgEgxIhyHCHs7yLw0HG79Qa19qXbDBwFlAIbPXA/ISGfNmftbAvhxkM4E0ralWIEZs+cdgwinObhRLtA18YCm64+PGDHiiZOnHuzrVhqkb6c62WzuOQDYtfczOsDJS6jWPhrRLpfLrQ8AhxHBT7piCzarlKlpIrbBBhvUnDGtEToqGUMDAWUAhsY8DSktCy6iBH8pevd46f48AcxHgqMBYTRXJKIliOIJIPsVIvHQeadN5Yjbfi8uPv+/DIfDv+j3zgN0wCyluj7iKE7ziNidmxkRriQCzsPQQ9BHRHeNGRM+KoBIVUUhoJLCq3egfxCYMfvWzYUQdxJRnxWqS4+zibXWBAAAIABJREFUCeCB86ZPG/CLyw8/XLZhKNTJF78FI1T8uD7R2trKwWlrrORyua1sG74uBBxEBNusVgRvArD/EA6H38xmc+zZ1HM/IATuPXr0aM5HoIpCwBcBtQPwhUhVqBWBQg6B/KgZgHCGnwwCeomQzjz/lONe8qvb6OfZbO5WAJi2Wi59sGpVyzYbb7xuvx03OY2BPZBGjhz5VdvmvMJwaEVimgznE25p0Wevt956BXfaXC73ZaJC8plSeS0cbt2u0fgoec2LgDIAzTu3g2Zks2bfOoWwQKkQ9lMKga7RNfGrs06a+qFf3UY8z+VyXyMCplDuKQNJn1xkJZ0CQBxgdkDfMdHjROKPTi6duVyOj4DOKrUhwhPHjBn950bgomQMDwSUARge87zGR3n11f83euUI7WIkZPplv/IpAE0/d/qxt/lVrOc5++GPGrX2O7197/Fn4fDoX9cj169tLpfbw7bhcMRCDuIvOdTnqOlbiOyZY8aMcU2Gk83m2AOqeHeisn754a6e90VAGQD1VgwoAjOum7etEHQN9fG2cVIDX0Ok351zyrReFMeNUnjRoo9n6SFxtiZEUSQ+Fg6P3q9R8svldO80kD2dDiOinojdir6eA6AbbNueO3bs2Epe/15VlyzpOAqR2UpLBX8eDo/+VX/ormQ2LwLKADTv3A7qkc2ac+uxNuDv0THytbfqHEWMCBece8q0sg9efcNrb1+wtx7SnyxRRwDAByNGtGyz7rqNOff/9NNPx6xaZR2CaB/W7aWDaztrTAsR8WbLsv48duzYd4OOKpvNMlV1j7fPqlWhDQf6ziKorqre4EVAGYDBOzfDQrOZ18+9EAgvAKB1/QaMAO8S4Y15Oz/n+6cfXxd7ppmSr+q6vu1q8jjx5XqzeC1ZsmRnRO1r0J03uSKeoGytjpjq8uq5C8C+MxwOP+s37srn3fTTdlkAHN4UDo/2jsKuthNVf1ggoAzAsJjmwT3Iq66at07nCGJCue8HTM+4AoW4EoF+HyTfQOXo579t/iiki4tLbKF6i3bG+HHjrq0WpU8//TS8alX+a0WPHb7A7XEjdZD1NAA+ikh3t7a2ci6Fmktl4nemgqhXZs3KqIZDGgFlAIb09DWf8jPmzD0ZES8Aok38RldMH3mTLsTc6cdPKSRx8SuvvfbOBNEi3gvp2loFbiFNnxM1JniymZbL7Ojo2JuIOIn8/gC0k3t/yDTMf0OkR1atWvXPRiZ/yeVyTxKVKCD6797CD0v1fOgjoAzA0J/DphxBMUcwH2v0RLk6DbSbIK5AA/1FSNfu04V23fFHHeias/jF1+b/Tdf0Y7ldSNefn7xJm2eayI6ODsOyiH3yD0QsZC1zOctn7QpZxZ4hoqfHjBlTNzGd03g7Ojqitk09NA9E9r5jxozxydHclK+IGlQDEFAGoAEgKhH9h8AVt9yyHi3XjyZEXqX3+VgLIQr8/6VcAHym36LpCzVd+7seCs2ZcsCePYFlTz//2j56SHu8yCoqxVqhXbaKxfokTFmyZOl+iHyOXzjL70VWVxopIiwBwDeIgD2VHv/8888fmzRp0vL+Q6Jbci6Xu6jIAcRkEC+Gw6OZVE8VhUBNCCgDUBNsqtGaQOCP196+WV6zTkKAbwDAxiUd+KNfyPy1Oi9AYVdQMAya9qwe0v+l69qTIV37o67piVBIAz0U2nb7L01+nWWY5qKI1kKHh3TtAF3T9tU1bZTD+P5DBM8IAU8LIZ5bU2RrS5ZkP0DEjVg/RDi8tbX1vjUxF6rP5kBAGYDmmMdhN4qZs+ftj4KPh2h/RLFVTyawQgrIUmawPhnCShnD/qVr4uehUGj/kKbtr+v6jr1TSWoZRPFy1y7geUT89/Lly18cP358n5SWAw16Nrt0fwD7kWK/b4TDrZwnQBWFQM0IKANQM3Sq4WBB4NI5dxgjNPuUkK59Xdf0WGGFH8gQlOUMDumf65p+pRipX2eMG5caLGMr1yOb7ZjNEdLdf6Njw+Hw3MGop9Jp6CCgDMDQmStHTWOx2PpENFkjGtXy+ecvvbl48WdDfEh1qT/7r/dsrQv9QE0XB4RC2s4hTV/PMZNYWe7gwnFR+RFSSPtA17SXhNBeFAKeGgzsmkXff05KMxIA5ofDrVvVBZRqrBDgY8Q1gcImhrE5IU4DogVJKZkkTJUqEZg4cWLrCE27EgCO62lKdK2Zyfgyb1bZ1ZCuPu/eh9uEFtq+Rdf3COn6Lrqu7V46Llp9cVy8Lygmky83CGWDZ9bNdxCBcxq/LYSYP5D3AEuW5L6DCH8srP0Jjx4zZnQhn3IikRgL+Xz5RTUl0+mnEtHo3vzf8slLRCJb5oV4P51OLx3Sk6qUbxgCPQYgbhj8cpVWFS+YUv6wll4SicR6kM+fX2q7Ip+/YuHChb3S9sUN4xUAKNDWIsDuSSk5E5MqARGIRCKjQ4jPA8CmhSaI/FH6EInmJ6X8dkAxw7baE0+/vKvQYYcWXd9W07TtQrq+Q8mdtHK3sJonqC9ciNhBRC8A0ItEwhSCTMuyzP5IH5nNdnA/HHfQ6+y/ZABsolMA8XEBkBKrVv3XCoXahRCHvNfeXqCLnjhx4lojNO1tRDwxmU4/OWwnXw28FwLlBuBpANij9JQ0zUilUplq8YobBkdz/qGnnWVtYi5cmCyXEzeMFwFgR/6bLcRm7e3tzMioSkAEYpHIbxHxxwTwOQnx1fb29he46RZjx64z3I+AAkLYp9obb7y9tQhpW+uavmUoVKCI+FJI1yfyXYIQ1W2UiWg5IppEwHcJbyFSEhHfCoVC79bCNbRkyZKdEEVhjhHhkNbW1l701fz3uGFcBLZ9q7lgwfxNx48fkw+FrhEAy5JSnszPE4bBC4MdAfHPygDU+pY0XztXAwCIvzfT6R9VO+S4YbzfK5zfwQDwamSkph0PRM8lM5k3q+1juNePG0aak4UgwDVeK/6YYRwNAF9DgLdMKS8b7rhVO/7Fixev25VicRtd17ckos0BBO+QtwSgcdXKKqu/DACZ9C0NQO1EIIUAEwAWrlq1KuUUMZzL5X5DBBcC4Evh8GjH6GMHA3AxEH2Mtn0DL8ASkcgMW4iPBMDzygDUMXtN1tTJAHAijo0QILfCsiYuXLgwcHBLIhL5BiFyQgpOUzexgJWDAWgyDAd8OHHDoGKnPzClvNRNgZhhfIbdkas/NaW8yK3eJtHoLmTbR4AQK4koBIgvmun0gKdmHHAga+ywo6NjAyLa0rYxDgARRDvG/wVA/m9bjWILzYg/2oi8I34bEV6zbfE2os15EVrdVv8uO4CLQ7b9s7wQFwDAE0KIrEW0uzIA9cxO87V1MgD8wz+i+DaebmYy1wUddtww3igkuECcB0RTlQEIilzwetFodKRGVDLK3zWl5ItgxxLEAMSj0WlItC4gdh/TdXYmSdeZh2d7tWsIPi/lNXO5XKSL4rnNtiEGYLfxvznpDBGOByAO4vJlPq3suYuG4p+tra17u2nktANISTk9HolcA4iaKeVpsWj0AmUAapvTZm3VxwAgwF+JKAyIBwLAf00pnTIW9cEjHo0eBEQPAsAXhPgdJLpBGYDGvzaNNACTDaPNItrJJkqhEL9HxF8B0TdtTfuFsKywjbhtKp2+sfGjUBKXLl0asyxrHCKOJjbAAOsVDcM6AFDKUNMDVNcR1Fyv7GAJwzhFA3j8HSnb2TUYLes0U8o/bBKNbkuWFUkuWHBvzDCO1xDffC+dfk3NgEKAEei7AyCaC0LcVPyYc519TSl9yabihvEPrtuV9/WPgPgsEP2tXgPAro4tQnwHAbYHRF6V8habPYreQcRHbSGuTqVSn3A/fAG6au21+QIayLJu58uwhGFsZwN8AwG2BqL3zEzmzMppLx5b7Y9EkwmRjd2nhYs7otfzQlybTqff9npV2tratkbbPh27OWN4ZZ7kvhDgH273G+wpRZ2d3wWinRBxMgFEAeB9PqsngBf0kSNnvvPOO70yQsWj0SMQYFsi0rvW6T8p6vQgIhYuB7kk0+lfJCZNOhw0bfsCDkQ/Lz56AhF7kod3ybmbPwK8Ikyl0xfHJk3aERG/b2Yyx8Yjke8ikeQPRtwwfmJK+Rv1U1EIKASaEwGnI6BbTSmPixvGf/m7Coj3mun0FK/h84eWANi1s3Dmj0LsSoh/cTMA/NHUiI4i217kdsQUj0T2AMT7AWADt74RcbdkOs3ukBCNRjfSiD4o1EU8jgBGI9HVZW3fN6XsvpcAAI5FsBFv5o+w59QinmGm045c8fFo9BIgcnaXRZxlptPnVsqOG8aRXTw2LM8tLSA3+UAgHly+UotHIjcB4oleuppSYsww5iDAKT5jOslMp2+KGwbfDfy6YACEYM+SN3keU1IW3HjjhvG/XncHzfmTUKNSCAwfBJyOgP4vKeUJMcM4uStdXyFISweI8dbSDZa4Yfy1GJB0tynlkYlI5AQvA1D2/GVTyoI7aHmJRqObaUT/Lm6LeSX7CCBegbzCRowAEa9wv+tqAAB+UHRFZW+ZRxFxERAleFyFD9vEiQnQtJdL8gHxOiK6VyB+zs9t294GEVnGBP5/Avh6SkoeY09JRKPnEdHlxT/8hQCeFESLCXFTQGSD+aqZTp/Tq005LgBLiWgm0wcLIfKA2EJE+5YZlGWCaNv3MpkCLUF/7AAS0egveNfABgCE+JZAvIWILjWl3JP7jBnGZSkpvzd8fg5qpAqB4YWAqwEorgCZKndDAphRWhVWwhOLxSJoWZL/LoTYmwNP6jUAccOYX6ThXYRCnJRsby8RYPV0H41GoyMsa9U7CxZweHyvHQACvE0AWdK0Q0pHROV6x6PRF3pW/ohfM9PpPslENpswIdyp63xssgUALA3l84m3338/W5ITNwyOplyfAK7ny7ZKXPj4qjwAbvKkSePzQrC7H4fyPwO6fpRpmh9XttskEonZAE8C4iQA+Icp5f4VxrFhl8Ds/WPb9tZE9CobgJSU34kbxnVIdB8gLrQR906l02ykVFEIKASaEAE/A8Bnzew++MnaK1ZM+M9HHxVWyBUf05lAxCvdV0wpd+Bn9RiAeCRyKq/IWQ4ifqUynN1tDnodAQFAHmC8lLL7SKisxCKR/fj+oCCf6OJkJvNjN5mJSZPiJETBO4aIfpHKZH7J/zYMY2MdoGB4eCfi5YlTkh03DHbXLKymtc7Ose8uWuSa0zZhGNMJYDbXFYi7vpdO826oUBp5CczyYtHoSWjb65KuP5RKpd7lICJL14/iI7RUJnNJE77zakgKAYVAEQFPA1BcBS8AgLUQ4KyklOVn6lCkJGCf/1HlxyT1GICYYbzKl51dSbUfMqX8WtCZKjcACHB/UsrDnNqWnZGv6CQan8lkOrz6iBsGh82z+91LppQ99wVxw+ALX17NP2hKebCfnnHDYJz4SOlOU0oO0HItfKG9ctSowiVwpZFqtAEoGIFIZE9EnIKIXxCRhrb9Al8C+41JPVcIKASGNgKeBqDwcTCMqxCAw8jfNaWcXD7cRDT6YyL6LV9amlKOLz2r1QC0tbWNE7bNgWhAiGem0uk/BYW3lwFA/CWfbTu1jRsGe/VMJqJ/pjIZV7/qUttYJPIzRCys/PmStfT3eCTyJ0A8vfj/D4Jt/5A9j5z65OMqjbrT+BHieUGOVXpiKogeNjOZnrSI/WEAgmKs6ikEFALNhYCvASg/BkHEg5Lp9MM9H0HD6L4jILqg/LigLCLYMRK47HmvS+C2tradhW0Xjju68qrul8pkAudVrdgBfCcp5VUuBoDP3dkD52+mlMf7TSf7VxPAHK7XSdRa2jEUfa1Zv8KxFxcEuMMmmpnKZJhXqackDGN7AuBLZz7XOtZMp3153BPR6CNExOf/vTAqknqVkpN4Hj/FDYOP7Di71c/Y28dvrOq5QkAhMLwQ8DUADEfcMJh6lt0Xe447ys6pl3cSTSg/Sql1B5CIRr9CRE9wn6UL5aDT0csAEH0jmcnc4mIAOI5gNAAU3F395Mej0WNLMQ2hfH5M+UVw8aiG3UA5vmBMjyzEe1fm8yeVLoF7GTaAo1NSFqh8vUo8Erm76E3Uc7fC9dUOwA859VwhoBAIikAwA9Dtk19Y1ZJlbZpauPC9uGEwidvmXR++K00pv9trxVujG2j5SpkCfihL/QY1ADHDSGE3X0sfDxsn0JhFkQAKu4nyI6DyuvxRFgBnCKKfEkBrYaEPcEdSymP437FYbFO0rG7GU4+4gnKZ8Wj0n0D05cq7EGUAgr7aqp5CQCHgh0AgA8BCEpHIvwlxZ3YJ5UtWAOg+nnEge6t1B1B++UlEv0tlMhf6DaBaAxA3DKar4DP1JaaUXsFYBdFlZ/3Pm1Lu5qVPYsKEibau/7NoYABDoQ2TyeTigpwSgVvApC1xwyjsVPj+ofw+QxmAoG+EqqcQUAj4IVCNAfgfYpI39q8HuLsQbUp0j5nJdBPHlZVaDUDxQ1nKS7DQlJJ94QOVoDuA8gAuAjg0JeXfvTqIl+45EH/MtAl+yhTcKos8SIi4T4l6NxaJPIyIBzDL6qgVKyJOLrUl2Ym2tgPItgt3LUyDkZTy1TJDFzgOoBSrAAC/MaX8Xz/d1XOFgEJgeCEQ2AAUP84c8BUpQeTmp1/rJTDLZS4bEuKeQh+I88x0eprblGw9btzapQ9pUANQ4AwaNUoWj2qWCKJdStG2lf2Urf6/COXzkdL5P6/C0+n0Cie9mHALAf6v+PHuyXYWN4x9AKCbU8nFcPKjomst8/sknDyVqrkEThgGcwtt5ofj8Hrl1WgVAgqBnm946R9xwyisvPnjVaJMcPggng2IswrfMIDXUlIW0jpWlnp2AEVDcwcAHNX9raRHSNN+Wsp6VaBx0PUduxKj/rKY3q4PFxB6XAIXjEwkUtrN8P9+QIjfW2f58ntLxqTAEwTAAWLfKH6we9Fis1unDsDBaleBrj+RTCaZQA4S0eiuRMQcSAnOd2xmMj3GsvDcMG4ggJOKeD1mC3FhaVyF590rf07cwqR0yy3E7SvJ6Ko5AkoYxu18lwIAKwTibswtVLiQzue/cHNZVT8NhYBCYPggUNUOoHhGzxGw6xLACSkpCytdBwNQSgzjfEfQ/aG7sIu07R0znS750veI4ZX9ZyNG3MlHJl5T4cYF5GcAWGYsEjkHEYPQHPRxoWQa5TwU0v2VynwgWr9I38B/+xgBjnDKdVzmUeU1tM9soqPaM5lCxHJ5qXIHsBsBPNunI8QCGdzwec3VSBUCCgEnBJySwj/qRQFcPEPf3yv6tbiSLVzgapb19XcXLuQ0kVWXuGF8BxBPA6JSsnqWsRQQmRvoxnIOH+beGaFpBfdKm+g3Th/PSgUKXDjdgWwc4VuepIOjcF9kOuVKn36WUfD6sW0OEDu1l/snQBoR59pC/M6Jg6jUP98TANHZxYjncrWYuuJJW4gft7e3F/iVnEoxOpkfzTKlvMsL2OJc8Bh74hUA8UiV8avq11E1UAg0HQLVZbteg8NnCmnR2flFZYL5RqnE/D4tiBFhWQtKBHNBZMfj8UloWRP0zs73ymMEgrTlOnykZYdCrWt99tmb/ZnQPZFIjIV8fksL8YP29vZul1RVFAIKgWGNwJAxAMN6ltTgFQIKAYVAPyCgDEA/gKpEKgQUAgqBoYCAMgBDYZaUjgoBhYBCoB8QUAagH0BVIhUCCgGFwFBAoGYDwIlDKBQaaxGFEXEsAoRtorAQYq3SwG3b7gDEpI34cjqdLtA8D8bCrpUjhWgDITjx/HZElOeIXSBaQoiLbSGytm0vdkowMxjH08w6JRKJ9bTOznCnbYeFpq1TGivZ9jItn5deiXaaGRc1NoVALQgENgCc0rAT8X8Q8cAuV8WvcJKYKjt8EwGY0uAV0dn55zXxQy1k8kLcBgG2s4m2R4BNAYDpJpgdNFhBfLErQcwTtm3/I4iraTCh/rXihsHZ2XqlhyxrZZlS7usvZejUKOSFtu0DQAjOkxwtUnhvHGAEHwHRg4jIbryvm5nMMwHaqCoKgWGJgK8BKFIs8MfnOw1FCPFfYNvnmZlMN09+P5Z4NHoiEDFj6Wpf+Mb0x/kQbrEQ51RG7DZG/GopCcO4hbOuucl1YypttB79La9ICc65CwqJ6RtQOA/zXWRZ1zGLbQPkKREKgaZBwNMAFLNhXVDDaj8QQAhwalLKQrKVRpcCp44QF3RRMpwCAOFGy6+URwC3CaJfJDMZpslueGl2A8Arfh3gimISnIbjpwjx+gNSJXOoI+BoANra2rZB276rRGvcX4MkxJNT6fSNjZRfOM/XtPMIgBO1rN9I2QFl/dqU8mcB6wau1swGIB6NzuLI6MBg1FbxIlPKn9bWVLVSCDQnAn0MQCIanUJEfy2mEuzfUTeYk2aTtra9bNu+FQCCnBX359ieAl2fapomp59sSGlGAxCPxzeEfP5uAPDMs9AIABHxV8l0+ueNkKVkKASaBYFeBqBAt2DbL3Vtl0MDMkDEb5np9M2N6CsWjV6ARBcx/VAj5DVAxiKw7QMbxbrpYwDsrpy/g2XcgaBLJBIjoLPztQJd9QCUysQ6A9Cl6kIhMOgR6DEA7F5HnZ2vM9dZQK2Za/4JQfQkCFHIegW2vS4JEQYizo9rML00u1W6yQvC2hlEl7hh9NBHB6lfqMPePETPE+JbAuBNsO3F0NKymDN4FRK+I66HnZ3rEeL67DXE+XmrPZ8mgM8F4tHJdLqQ3KWe0mw7gLhh/LmHbtsfmAwBPFp81xZydQIYCba9IQrB7seTsHsXsauHqJ+aUvICQRWFgEKgiECPAYhFIr9FRObA9ywIcI0lxCVebJXlAphCesWoUXszPXIxsfzqC1nE48x0mo9sai5lnPdBZGQRcY4txA2pVOrdIA3K67BhEPn8YSTE2UDEDKJBygpEPCiZTj8VpLJbnWYyAOUZzzwxIZoLRBdVs4vixDtIdDghcj6J1cmLAH6SlJJZUVVRCCgEyg1A0dWT+e29fPs7EOAQJ477atCMG8ZXAeCsQsKXOg1APBq9GYi+GaB/pnf+/YgvvpjZKMbNmGEcAgAXOVA691GHdwIa4p6ckCWAro5VmskAxA2DXX+398ICEY9IptPdmeFqLAW6b4Bv8ztCAVN61tiVaqYQGJIIFHYAccPgfLHse+1YOCqWLGuXRlIxbxKJxCxd12tZiRd1/lVXSvogXh3P5QGO7q8o3mKMQZDkKqY+cuR277zzDhujqkuzGIBYJLIfIvZJdFMOiC3ELuWZ0qoGq6JBYYFj2xMGIuakXl1Ve4XAQCJQMgDMD89RsW5lX1PK7ny2g6C0RSL7i+6kMN6F6E9mJnOmX7V6n8cNY/eupDKcXH4DL1ldkcd/TUrpGszl1bZZDEA8ErkREL/lOtYGe4bVO7eqvUKgmRHAeCSyAyCy549z8UnMPtDgFI+r3qjIxOWkxm9NKTmCeUBKIVexEI+XpYV07NcmOqAWColmMADFfMbsMNDD4VMB0sumlDsOyISpThQCCgHARDR6MRH9yP37j/sk0+knBwtWCcO4jwAO9dFnjQT9xCdN+hII8YLXXQoCvJ2UcvNq8WwGAxAzjKMQgD223BYbKldxtS+Gqq8QqAMBjEWj9yLRYS4ylppSBidKq0ORIE3bJk36shDin551iR42M5mDgsjrjzrxaPRYIPqbj46nmZnM7Gr6bwYDEDeM3wBAIVe0U+kkas1kMh3V4KLqKgQUArUjgHHDYO4axxUpET2SymSY/XNQlEQk8m9C3NlDmaUW4uZrmno6ZhhXIXufuC10a9gFNIUBiEbZrXOqCywLTSmZmVUVhYBCYIAQYANArn0R3WxmMu4XdgOkJHeTmDTpcBLC0y2QEI9PpdPeq+8B0HmzCRPCnbq+xKerg00pHwyqTlMYAMPguyZnRlbEf5np9F5B8VD1FAIKgfoRYAPAW25H7xU+r01KeUz93dQvIRaJPIyIB3hIesKUkmMMBkWJR6PXAtFpbsowe2hKSrfVcJ9mzWAAEobB1A/buGDynCkle1MN6RKPxydhPj+RAFAAdOSFyLW3tzNtuCqDHIGJEye2hkKhiRrRaAT4xBIiN3LZslyjYofW5PCZd0tYVlse8cPyIF42AOxR8yUX5T4ypdxoTSrOfW86ceIES9MKFABuBW07kVywgLnfB0Vpa2ubLGz7bQ8D8LmNOCadTq8IonAzGIC4YdwPABxA16dwsFxKSjfvoCAQDXidAmuuZU0DxK9id9SxFwnh8whwnyXE/e3t7f8ZcGUrOuRobNuyviIQx9mc0Y9ovbIqT5tScmxQ0xb+2Lfo+lQBcBQRxQBgvIfzBpM63kMAd6ekfGBNgrL1uHFrf77WWscA0bQi3c7YYrKkHrUsxI1Lx+DF04jziehjRHyXEKNItBsi3sGBlmwA+BjC9dIUbXtKcsGCe9fkoItEb79z//rjFWY6fc6a1NGpb19sq4h2bQoDEIlcA4hneMzjkWY6zeygg7okotHziOhUt7uzAMo/YSF+u54kQkV36A88+vqBKeWllc9jkcjPEZF3pvzBcy5E95iZDFO3cJCo5/dB6+wc25/Z/fyOU6vlEysmHGKvx1odRZYQwI9SUt4QYJ5dq8QjkbuZX8ylgmlKmah8lohGf0lETHM/0qvvcgMQN4zva5b1N1vTZgHifCCaRLr+Y7CsC7tYDO7GWCTyI0S82EPgOysta7uFCxcur2fA9bT1ow4oXvy6rrbr6buetvFI5FRAvM5NBvMqJaV0vSwub9ckBuA0QLzWA9P/mlK67UbrmYqGtC1QSxBxAqOG6IiIlyTTaU64VHWp1gAUjqY6O2/3caLo1qPMAMQM4+sIcIurgohnmOm015xWPbbyBvFI5IeAeImLkA4LcXyQXTSv+EcIcZlnEGJ1mj6HRKcmM5n/Vtesu3Y1BqCtrW2c6Ka551S8vqVkABKRyDHQ0vJUPp9fW7PtmWzU49Ho6UhCh+0gAAAf1UlEQVRk5RFv0QCuxaJwv4TtfzOlPN63536owGRyK0eN8qJPeNaUkllHB12JxWIRtCzpodirppSenDilts1gAIqMs/yueXFO/dGUsr+Tw1T9rsQM4/Kuc+Hzqm7o3+BJDIWmJJPJT/2rrq5RjQEoZFsjeoYAWgP1UWYACkcOI0dy8J7bnD3en/mo44bhzlKAwXb+iUjkMEK8vvKoJBAW3pWWIeLhtcRJBTUABWZiy+LYIi+mhl5a9hgAw/h2Usqro9FoVCO6BRF/TbZ9pK1pM9rb298peisWtnm+dMprKqFGkTzuMY95+FkXF74rj1EDJrkuEfFo9F0g2sRNyPLOzrUXLVr0hV8nzWAAeIwJw7iBAE7yHG8/ryr9sC5/Xkgtinhn0NVXNbJLdRHg9TziQdW4Lwc1AEX9X+RFZ2DdygwAt4kZxl8Q4ATX9ro+rpHJj3oWPdHorkT0nFu/SLSlXwrWRDT6YyLqVxZYAjgmJaV7gKPDAIIagHgk8hAgVuWK32MAotHzkun0jKIBmE1E/xJCLOO/sUpxw7iiwAW0iWFsbjMnvl8hOsfMZK7wq9bI53HDYMI3Jn5zLET05VQm83Qj+2ykrAAxAbsHYVhtGgMQiWxJfBbpU5BoajKTuc2vXn8+Z3oP0rRH+js1anEMgXeDXD+oAYgbBi+eqvOOqzAAiWj0QCJ6yPU3iPjtVDp9TaPnIh6J/AkQT3eR67vz9zVcDVQYAQL9jktdBjEAccMISnjZayQlAxCLRs+wiO5BxBE60UVJKU+IG8YTKy3r6IULF+bikcg1PfkAfM7aVndAdNPyfP6sIKvWRuDrAxSYUnomtm+EDvXIiEWjx2F3ik3nEjArWrMYAAYhYRgXEgBHBXuWNUnhPH78+FGjQqGXA2Ys+4gA/sk0H4DInmgfIcDmNlEcu+8L9vYbKz8ngMtTUn4vSN0gBoAQP0eiqz3kvdRF8f4iIH5c9IRhipXR5XcAPR8sw2BX1g1dZD1lShnofDrI2LgO5/YeoWnc57qObYhONDMZTirkWILmNwEApsG/CYne4rnLI76FiOPQshKIuDkQHRpwBS4xFNo66FGenwGwhTha2LY7fTzRAkBkWnVeTPGl8J6lhEjll8CMA+j6n9CyvmFK+ZvCvQCAsIWIgWU91uvjGTcM3m55ZVUqgf2OLcTUgXBnixsGD3BLx1lGfM9MpwOfjQV9+RpZLzZp0o4oBG/B3cpvgrjcNZMBKBgB/6jubryIHrY17cSB9qVPGMb1BHCyz7uQBaILzUzG9aK/ONYt+CIzAIcVBCUL9DUAiLOA6BQn4j2+fM4DXJxOp5dWjq8QcIkYrdzpx6PRmUDk6mmXBxjfSMp1n4XTJysta2M3x5QgbMEFinvE84OkpC1e/vMdgvN3qAQi0Vwzkzk2yPfDxwCkASDrEjT5FNn2D1ILFvT5pvB9AVjWvqGRIx8t0c4XLr817QJE/ICI3i66gW5vC3Fle3v7670MgGEYG+sA/wp6XkiI56XS6ZlBBlxrHa9IZUK8L5VOH16r7IFoVzyDzXn0dasp5XF+ujSdAZg0KU5CPOuxqiyHhC8hT6wmctoPT6/nMcM4HgH+z6sOv3stnZ0nvf3++/xDDVRihnEyAvCHxKsEOgryNQAOPRDAv3XLOvrdhQvfD6RwWaUAC5nvmlJeWa1ct/o+Z99XmlJ+16ltQLbgZzEUOoLTv1ajb5A0pgJxuyCJn/xONhz0+gKJTkpmMvOq0blU1zUQrFJYwXMln3/aj9a41I6Te4h8/qRaXiq/gfgFgCHRzGQm0x+eGX6qVfXcK9q6a8f1kCnl1/wENpsB4PEW7554wbE6Tag3ELNXWtYFfH7ph1etz6PR6AYa0Xs+dOM1eyoVPVL84mq+akr5hNcYajAAdXvy+XjkNIzKw+93D7a9lVua0AAf6b+bUvqxCbtCHzcMpppxXeXzwoHP2v3evyoNwAfFbIyv+smt9rnj+flkw2jLAzzjE9lY3tdSQDyz3vy+lconDGM7AnjFbVBE9PNUJuN6QVwtGP1VP24YvF1z47l/3pSSE5p7lmY0ADzg2MSJW6GmMcOrZzKdMnCyCPCjpJR+K2k/SB2fx6NRPjpxd0NFvNdMp90CeAL1GTcMTk7vnqsiAKNtcbe+KFCHAL4XpkHk+GUO1CxrYiMWgj6eO66/l+JRzfMeY0liKLRD0HN6JzmTJ09eN79ixVsAMMH1u6RpRiqVynhhGo9G7wGiQKcXCLB9UsqGf/xZP9cL1MmTJo3vRPwbIgYm6EKA+zsBTmvUWWAx0xYbIudCdLaZyfwxyMu7JuvEDeMuAChEVjqUt0wpt/DTr1kNAI+7kEdB0+70cpd1wOdZsqxvpRYu5NV6Q0oiEtmCEL0CezpI09pSqdQn9XYYNwymNnH9iITy+TFex0vVGIBGBUoWF4Z8aepYGnUkHDcMntM+kbDcKQGc4haF67PQAkT8SjKdfqruuYtGvwVEN3rIcYzCLq8f1ABU4xhQy7h8PWjihsErFV6xBC1LCeB79YZKFz4M3QnkXWMAkOibyUzmL0EVW1P1YoYxDwH+x6X/tCllm59uzWwAeOyFgKMRI66sIVLzh6aUf/DDL8jzRCQygxDP7e8PHMtPGMb5BHCZq16InrQYVRwBNTQzXtwwODmUm1fTM6aU7I1Sc/FZ9H260rI2crr8TRjG9gTAXjFuJdBRa1DF4x5eUbwQTkrplmOl0EXAI6D3l3d2btqfHpe+BqDwsnYHZHAoshEUIL4bIE07xTTNBUHbVNaLRSKHIuJ9bu2HigGIRyK3AiKTNzmVQDz4zW4ASsAkIpGphMjJcsrJyfxeoZcsxG/Uw61T+FEaBpN+MbmWU/nEQtwoCO2An7L8vOid4XqB7He/FXAH8JmFOMnJ2yeIjk51EoYxnQDckxnpeqSu37xhXIkAZzn17UWdEjcMXgR8321cQb2rguIS89ATAJaZUnq+v0F2AAjwnaSUVwXVqZZ6gQwACy6y0F3uRXHsoMCngHhirQRfMcM4GLuTrTuWoWIAEobxfwTgRqXxoSmlF4tkYezDxQAUxjphwkQKha4KekZaejkQ4NSklMzVU3Xxcx0kgBkpKc+vWrBHAw7K8Ygw9syPHMQAEMDVKSkdP6a1jqNI58H++Y6EZIh4finStJY+4obBeTQcnQK8PGzihsELzYkufQbaZVejbywS2RcR/+HWxs8bKIABWGYhbtioBYfrN7SaQXPd4g/lJk82wb5CXd22vPqPRyJ7AKJ7lG/AIKpqx9jo+j4RiUtMKd1WnT2qDCcDUBp03DCO7FqR8wrI10CW2nCeBREKTa/2os9nRceXZTskpXR1SKjlnfFiuWU/9aSUrt5RgQxAP0XJe72L7GqakjJILFEfyDwXfIgvmum0YzbAeCSyAyBysiG30tBjMO4kGo2O1Ig4l4obM+dRppR89+dY/AwAAvw1KeXXa3mvqmkTeAdQLrTgKgfA3hLfDNoZAbwWsu1D3lmwIKjnArS1tW0tbPt1D+t1FpMdBdVhTdWLGwbvYg526X+RKaXrZWCpzXA0ADz2gtfFypUXeXrm9AU2JQAOfU9K9tYIVGKGwXz9u7hUlqaU0UCCqqjk5+TgFeUewAAsN6UcVYU6gav67ZZsIaLlSUeCCvZ6x712d8xwCUR/cuuHbHtnp8CpoHq5fsQNg+NYHD34CPHMVDrtqpOfAfC67K5X7/L2NRmAkoCYYRyCALzlDpo05mOy7UODTkZbW5shbJuj4tzKr00pf9ZIQPpDliedNeIbZjq9tV+/w9UAlHApuvgxLbGjd4gDfp8Q0dGpTMaLSLCnWdwwmO7cbTU325TSNbub39y5PS8ybX7m9rw8pL+yTgAD8JIp5U616ubXzufIxdcLplK+D+voZ2uvWLHRfz766HMnvbw4g/oz0VDcMDgCnPNC9CmI+MtkOv0LV+Ph4wZKtr1TasECr12N3xQFel6XAeAeCmeCq1b93oO0qY8iBHBIkMw6xW2Wex4ComvNTMY9wUggCPq/UtwweNfjdowRKJXlcDcApVmqliArSJ7oYiyCe5YuoodRCC//8ppfIpvo+wiwtpMAW4ht3OhW/LyACOD2lJRunmc161tq6MW1g0QvJDMZt92UY9+e0dc+v3MfWhHOhNVwojoeBBGxN5QjB5Jfrg8/L6D+TrRTmoS6DUDZC7EnIrJvbJAV2jKyrB2C+HB7rTSI6JFUJlMVVWrdb34NArzoLABgWFJB1ADj6tU6xw0IwfdQzgnmK4T7rab83I3r0bWetl5Mt747gH5eHHGOAY0J1FyKIIq/l8m4xgxUNvPMPEa0o5nJuLp4xg0jGZS+pp75qKot0c1mJvOtWncAA0Vy2TADUBqoj8dLDx7MnNjyxRc7+SVc9vGUCHR+XtXENbgy5431ZPUDuMyU0tV9rQzXWwjA9VJooF6YBsNTlzg/qvAe4UQLVtr2tm4UEnHDYCqONZrr1QmIugwA4u/NdJpTH/Zb8bo38TsCKVfKh/rBlxspHolkglLX9BsYlYLrMwC+bqSNGkfDDQArxokGutjsHMmaeimOOMtMp10Db4qy2Od4utuAO4laM5kM38YPyuJ3QcU5coOk1FNHQM7TW+SqZ4IsT79rL46WRDQ6hYgGXS7iegxANR/gWn84sWj0TA+66ZQpZaAkNJ7UDwF+Hz7xG7UOr7529RmAj00px9WnQLDW/WIAih9ub76Ton46QOwdKdvd1O3yC/5Ol1+wK90DVpFYPRgkja3llwEraCIJZQDc56WY6NuTPI1bk2VtnVq48I1KSfFodBp0BzoOqlKPARiIXAoBmG73MKVkTxnP4nGEs1wfOXJcidrYTUjCMLKB0136KdOo5/UZgIwpZeCg23pU7jcDwEoVs9j7een8xZTS1Z00AA3tHFNKx5v4eoBpVFu/80kLca0gwR7KAHjPSBAKZ7cQfU6SQYhrNPuY0+i8DABzdeWF8KJ1/r4ppTvVRINe8Jhh3IYAnGSkb0G8zkyn3TJ6Feq3TZr0ZSEEkwH2KQhwY1JKv5wMfhHcDRpplWJ8DEAsGr0XidzoIgLvnqrUygnjekX4WnfOp8oBPY4liJtW3DA4Z65bUupAkbT9O0pn6ZtEo9vaRF4sfoH5SZQB8J/BmGFchgCe0bqkaRtUkrkVkqAIcY9LD0z85p6ZyV+tmmuQZX3XacfCAv0ugYno3FQmM6vmzgM29KFrWWpKOdpLVDwSudGN/wkRd0um077eVz7EenMQser8BwGH71qN4568GBB84gDeNaWcXK8OQdr36w6AFdhswoRwp66zN4DrGS0SHZ7MZFw5f2KRyFNerKRB3UqDANLIOnHD+D0A/MDV+CGenEqnvVgFe5oqAxBsZvx2XE70IfFo9CAgetCpBwJoT0kZC9b7wNXyMwADwSNTGq0XMZpXwvQtxo5dZ+WoUctcUPuvKSWn0/QtXnNOACekpPRM7uPbQT9U8DEAb5pSemcfa5BO/W4AWM9YJPIzvpTy0NkzoCsWifwIES/2aF9XkocGYdlHjM/KZNnaK1Zs7BbcUilMGYBgsxTgKKgPLUlbW9vOwrb/7daDhTi6kYRqwUbiXcvvCGggDUDMMC5HAOfETB75E7wypFWjv5c3Un9wODVi/nyOgAIbv3p1GRAD4Efp0EXi5HmOH4/HJ0E+75lgoT+4WuoBNx6NHgtEnD3IuSBeYabTrjlWlQGoDf1iMnHOGOYW1Xu3KWWvI8lCFjzLkh49+mboqk3b2lv57QDYC6+RKRq9NPU76nTz1IsbBvN87eEge/mIL77Y0M9FvNTOJ9/Gk6aU+9SOdP+0HFY7AIYwbhicgHp9FzgfMKU8xAtqn3gAblo3F3kjpzpuGPxBibjJJMvaNEggXKm92gEEnx1P/3SXKFWfYL3fmFL+b3AN+r+mrwEgOqcysXt/ahWPRv8DRFu59NHHGMUmTtwENe1dp/pBL3/LDIAnFfRg3MF5GQCOkUpKuXl/zldJ9oDsAIoGgHkt3CI3Hzel3NfTAESjJwIRR3+6F8STzHTau84AoBqLRs9FohmuXSH+2UynT6xGFWUAgqPl6ZkC4Eiz7PMBS5pSbhJcg/6v6WcAGpWdK+hIEtHoeUR0ueMH3cHoJiKR3xHiBU71BeKu76XTrkdylW3ikcg3AfFmj9/bt8x02v150EE2sN6wuQQus9LzAcDxYiNIBp2iEXFNFVfsZ5lu25tVwzjawDktiOJE5xbAi278LlwHbTuRXLDArKZvZQCCoxU3jPsBwG1H6bhTjEejN3ux29pCbNve3u7KTBtcu8bU9OMC4uQoA+EGWhpNIpEYS52dnFDHsdhCbNbe3v5O2ffgAxcSyf900ShvUw1KfrQUAPCgKaUbG281XTWsrg8X0IAtOAZyB/ApAKzrhCBzuKeknOqHru+5ereA5y3EfYL41vv1V+1zpskWRK8ggGuKx1qTdCgDEHw2fFbzjrvNWDR6EhLd4NZLtccSwbWtrabfDoC9z0wpL61Nem2tfAxvDye/F+8/ZwOrheI9bhgfAoBr9OwgvCP0SgpvmlIG4VSrbaLKWg2IAfBN2FAFb0nCMF4jAO8VAuI8M512S8FYN2huAhLR6CNEtL9HB8tsITZpb2/njEpVFWUAgsG16fjxY6xQaLFrbaKbzEzmpMrnAajHQQBsUU2OgWAa11ZrMBoAn4C6nujWhGHcTgBHO4x8OWnaxpVxGkEQ8tvBcYraZDp9QBBZA1HH5wiouQyAF3Usg10NnUMAcrXu+RtAI1D0Z+Y4Bkdq2NILhQDTk1JeX8sLpgxAMNTikchpgHitx0reNW1k3DAeBYD9PHoaNO7Gg9EAMG5xw2APLMfgL0TcZ0U+/58RmuaYC7meXVYxX4Rn0NhgihcaNAaAI/FQiMwq257ZH6Rq0Wg0qhG96RHJC9VyX/tesq7+BT+OodCR1aYHDPap6a5VOPvM5/8ORJ7JN+qlrm4GAxCPRi9B224By7os+f77C6vBOUjdQqa67nfNNYWk1yo+0dZ2ANn2w1599TfJGufXCPK+BrgDGPAjoMLvIRKZQYiOBI8EcD0gzndzkLCF2KW9vf2FIHPtVCeAp+AnZFk7VeN9V40unL+E6wc5fva5Axi4HUDcMN7mzHsA0EFEM1ss66q333/f0UJXAwbXLf4gOXGyK287Id6XSqcPr1a2TyDFanGIb+hEU7wI56rtu1Q/EYmcQIgz3ZJYl8nNhPL57evBtSkMgGEw5TJTL3MyjZ+nMplf1Yq9U7uEYdxHAIe6yvTIK1tqE+AjAn7p/moZU3EhcRERjQ5yHzaIDcAWhPhfFww46pfjeZycQaq+/K3sw/eoubvBu6RpO9dyzOQ2r8VsZmfyvYuFuEs6nfbKYlgQM5gMAPNkjC8b3AreipFlXW4uXMiJFmoq7OcrNO02v/N6r6xHXh2PHz9+1MhQ6HGPPK6VzS/FUOj3yWTS/Xw44EgThrEbAfy09DHzafaFQNzjvXS6Lj6ZJjEAlYE/JhBdYmYyTPldcyl+DDnc/6s+QvY1pXzcq068O9lMH8bQyjZIdHEyk/lxzUoXG8ZisfXRspjx9kIAGIUAdySldCZXK+tssBqAwsfNPcDL3TbXePlbKTBmGFfyRbLPvMy3hTim3CuplnncJBKJkRAnEhH3F2YZFmLbUDMAXmd2jwLRQ0D0cDKTcbPqvbBLTJgwkUKh7wLRD/1A5S1hSkpXrn+/9hMnTmwdqWnPEMBmfnV7niPOI6J7QgDPVbMraGtrm6wRHQxEJ/oZtTJdliPiwcl0+snA+rlU9DMA9cr3a98Iv/K4YbwCANs59LUYia4ngPvNTOYZP11Kz/nC1w6FTiMATnzilw/g/qSUbuyLvboMnGgG4GkEODsppRfhX5/hFFKdAhxBAMdXMkI2hQHw88vvO8HLMRTaKMjRl9+7UVwYzvfyxCvK+AwBflStxxF/c0YI8XUE4N3/zpX6DDkDEDMMBsIxJ2nF4DjpCv+AXwMiiQAfgBBLCnUQW8i2GQwOufZbhXWLRXzRAtgryHmZ16QXvT6Yy90zkMxFxkcI8CIBvI0A7SBEEixrfUJkd7IN+SyZ/41EW9SQco7dXo8wpfTlqfd7qfl5UxgA72jREgycJP0RXnigZT1YflfAnjqQz0eEELsWL9yD+nZXve2PGcY8BAiaU/cBArhDED2fzGT4DqJPKToK8G/kWAA4DgDWcarXDAagSMfBfv5ukf+9ho4ANySlPCXI7yBIHd7FkRDPB/yufYiI1xHRUyO++OIFJ/qJ2KRJOwkhdrIRD/KgcC6o1swGIAj2QetIC3HXdDrNvrsNKXHD+E1xG90QeXUKMS3EQ9PpNN+vNKQ0hQEwDNdgwIaA5CxkCdr2rtUG3rGouGH8GQC+UYNufAa8CAA6i215MREotL8ZDEARO07ixEdbvqXey1+nDooX+re7xR55KMWL2kVItIIQJ3k5FDjJGHIGwIdr33fyaqjwEuj6IaZpukYN1iCz0CQWieyH3SHh5XcatYqrrR3iFWsvX35hUJbPoJ00iQHgY0TeTQ1UectCPDjImaybQkW3UubVdyOXa/RY7jKlPMpPqB8b6JoIBCvXORGJbEmIbPD9Sr9RH082jLY8wB0ux45+etX0PKgB8HFiGVAvIE544Xl+WhMSzo3+ZiGeXO+xj5c+fKkGlsUXQSc0UG9fUQjwOiKeXg2Hia/QsgrNYAACBfFVA4p33YcwFJrWiHNlPlJAIdihIfhdU+3j8MyQVxI7mC+BSzrGDeM5AODjOtdSa+RvNfDGDSPwbqQauX3qIr7Radt7B3GnHzxeQNHotUB0Wl0D92/8PgGcnZKSs4MNSIlNnLgVahqnimRD4JmVqE6FXiXE2al0+po65Xg2bwYDwHkhAPGHAc9ma4UzC4jfazT5F7v6fTZixPcE4jn9lH/2LhTiT8n29keCDHwoGAAvvv/iGBt2+euHWSIaPdAm+mUVXoN+IkvPV3A+aUT8Y1JKviMNVAaNAWBt+eZ8lKbtxy5NRX7uxmSkR3wPiObpI0de4pfYORBqNVZKRKNTyLaPA8RG0UOw6+ydSHRtUO+oGlXvadYMBqA0mFgksq9APJkA9urKBTGxXmyK7Zl++/aVlvXbhQsXsmdbv5Siz/cZxUxv9f1OEF8EotvyALdIKfnSNHAZCgaAvytrhUI8LscThkZf/gYBL24Y7KTC7rteEd++opjA0ga4dZ0VK+6u5bh3UBmAytGyf6uNeBTz2hRTMQY9/2RPoeeI6J8C4P6B+jj6zlaxQsFFrKVlChKxtxJzl3tuT53kIoArlUBQPVS91QgU3IY17UhEPMAG2KeK3cEyIuIjhmcEIrt4Bl59NQr/YkJz5pfhj4nvu8T5rwXAEzbRP0KI91bjhtwonZWcbgTYowyJvgZE+yIA83e5eSytAAB2VlnYRSXxIgD8Y50VK56q5aM/GLEPRAaXiES2sBE3Q4AtEVHjgRBRHgCWdh3t5ARiFiwrWYunxZoGhf37kWh3zkvMbpsB9OmTUjBAG1UlIAKxWGxTtO0tulbG/K6Fiu+aBURLEaDDRswJIjnYFhesJ1OB2wBRdiAiorXZVZrYG8i2PxIjR37YiCDEgDCqalUiMHny5HU7OztHcyQ2Wta6GmK2E/GDwZYKtMph+VYPZAB8pTRJBfb3RSHu8XX9QjzDTKddCceaBA41DIWAQqDJEVAGoGKCi4Flc30D2hCPNNPpu5v8/VDDUwgoBJoYAWUAXCY3ADUwZ/aaklyw4N4mfj/U0BQCCoEmRkAZAJfJLXp7MIfPjl7zzxflqUyGGU9VUQgoBBQCQwoBZQA8pmuzCRPCnbrOyanjPrN6sCnlg0Nq5pWyCgGFwLBHQBkAn1eg4JViWez+5RUtvYqIDlE7gWH/e1IAKASGFALKAASYriLHEKcL9CrLieiwVCbzWACRqopCQCGgEFjjCCgDEHAKYtHoSUh0g0/1FcU7AU58oopCQCGgEBjUCCgDUMX0xAzjcgQ4z6fJF10RqgemMhllBKrAVlVVCCgEBh4BZQCqw1wkDOMez7yz3fKUEagOV1VbIaAQWAMIKANQJejFbEfPd5HBbe23ExCIX+0veugq1VbVFQIKAYVAHwSUAajhpSgyMXIe2I18mn8mEPdTRqAGkFUThYBCoN8RUAagRojb2tq2FrbNO4G1lBGoEUTVTCGgEFijCCgDUAf80Wh0M91/F8DUqZ+uCbriOoammioEFALDAAFlAIbBJKshKgQUAgoBJwSUAVDvhUJAIaAQGKYIKAMwTCdeDVshoBBQCCgDoN4BhYBCQCEwTBFQBmCYTrwatkJAIaAQUAZAvQMKAYWAQmCYIqAMwDCdeDVshYBCQCGgDIB6BxQCCgGFwDBFQBmAYTrxatgKAYWAQkAZAPUOKAQUAgqBYYqAMgDDdOLVsBUCCgGFgDIA6h1QCCgEFALDFAFlAIbpxKthKwQUAgoBZQDUO6AQUAgoBIYpAsoADNOJV8NWCCgEFALKAKh3QCGgEFAIDFMElAEYphOvhq0QUAgoBJQBUO+AQkAhoBAYpggoAzBMJ14NWyGgEFAIKAOg3gGFgEJAITBMEVAGYJhOvBq2QkAhoBBQBkC9AwoBhYBCYJgioAzAMJ14NWyFgEJAIaAMgHoHFAIKAYXAMEVAGYBhOvFq2AoBhYBCQBkA9Q4oBBQCCoFhioAyAMN04tWwFQIKAYWAMgDqHVAIKAQUAsMUAWUAhunEq2ErBBQCCgFlANQ7oBBQCCgEhikCygAM04lXw1YIKAQUAsoAqHdAIaAQUAgMUwSUARimE6+GrRBQCCgElAFQ74BCQCGgEBimCCgDMEwnXg1bIaAQUAgoA6DeAYWAQkAhMEwR+H83ZMc6N5/x6wAAAABJRU5ErkJggg==;" vertex="1" parent="1">
          <mxGeometry x="1050" y="20" width="100" height="100" as="geometry" />
        </mxCell>
      </root>
    </mxGraphModel>
  </diagram>
</mxfile>
